<svg width="850" height="332" viewBox="0 0 850 332" fill="none" xmlns="http://www.w3.org/2000/svg">
<path d="M11.0732 25.2974C8.14934 25.2974 5.78772 24.5102 3.98839 22.9358C2.24529 21.3052 1.37374 19.2809 1.37374 16.8631C1.37374 14.389 2.24529 12.3366 3.98839 10.706C5.78772 9.07534 8.14934 8.26002 11.0732 8.26002C13.9409 8.26002 16.2463 9.07534 17.9894 10.706C19.7887 12.3366 20.6884 14.389 20.6884 16.8631C20.6884 19.2809 19.7887 21.3052 17.9894 22.9358C16.2463 24.5102 13.9409 25.2974 11.0732 25.2974ZM19.2546 29.6833V77H2.72324V29.6833H19.2546ZM54.2248 43.4313H46.8026V77H30.1869V43.4313H25.042V29.6833H30.1869V29.2616C30.1869 23.1888 31.9582 18.5499 35.5006 15.3449C39.0992 12.0836 44.2442 10.453 50.9354 10.453C52.2849 10.453 53.3252 10.4811 54.0562 10.5373V24.6227C53.6063 24.5664 52.9878 24.5383 52.2006 24.5383C50.4013 24.5383 49.0799 24.96 48.2365 25.8035C47.393 26.5907 46.9151 27.8839 46.8026 29.6833H54.2248V43.4313ZM94.9166 95.4712C89.5187 90.2982 85.2734 83.5507 82.1808 75.2288C79.0882 66.9069 77.5419 57.9384 77.5419 48.3232C77.5419 38.5956 79.0882 29.5427 82.1808 21.1646C85.3296 12.7302 89.6873 5.92652 95.254 0.753446H111.448V2.27163C105.713 8.06322 101.242 15.0356 98.0374 23.1888C94.8885 31.2858 93.3141 39.6639 93.3141 48.3232C93.3141 56.87 94.8604 65.1638 97.953 73.2045C101.102 81.2453 105.46 88.1615 111.026 93.953V95.4712H94.9166ZM563.369 95.4712V93.953C568.936 88.1615 573.265 81.2453 576.358 73.2045C579.507 65.1638 581.081 56.87 581.081 48.3232C581.081 39.6639 579.479 31.2858 576.274 23.1888C573.125 15.0356 568.683 8.06322 562.947 2.27163V0.753446H579.141C584.708 5.92652 589.038 12.7302 592.13 21.1646C595.279 29.5427 596.854 38.5956 596.854 48.3232C596.854 57.9384 595.307 66.9069 592.215 75.2288C589.122 83.5507 584.877 90.2982 579.479 95.4712H563.369ZM668.894 52.7934C668.894 54.0867 668.81 55.3799 668.641 56.6732H637.35C637.518 59.2597 638.221 61.1996 639.458 62.4929C640.752 63.73 642.382 64.3485 644.35 64.3485C647.105 64.3485 649.073 63.1114 650.254 60.6374H667.882C667.151 63.8986 665.717 66.8225 663.58 69.4091C661.5 71.9394 658.857 73.9355 655.652 75.3975C652.447 76.8594 648.905 77.5904 645.025 77.5904C640.358 77.5904 636.197 76.6064 632.542 74.6384C628.943 72.6704 626.104 69.8589 624.023 66.204C621.999 62.5491 620.987 58.2476 620.987 53.2995C620.987 48.3513 621.999 44.0779 624.023 40.4792C626.048 36.8244 628.859 34.0129 632.458 32.0449C636.113 30.0769 640.302 29.0929 645.025 29.0929C649.692 29.0929 653.825 30.0488 657.423 31.9606C661.022 33.8723 663.834 36.6276 665.858 40.2262C667.882 43.7686 668.894 47.9577 668.894 52.7934ZM652.025 48.6606C652.025 46.6363 651.351 45.0619 650.001 43.9373C648.652 42.7565 646.965 42.1661 644.941 42.1661C642.916 42.1661 641.258 42.7284 639.964 43.853C638.671 44.9213 637.828 46.5239 637.434 48.6606H652.025ZM692.191 14.5858V77H675.659V14.5858H692.191ZM721.763 77.5904C717.49 77.5904 713.666 76.8875 710.292 75.4818C706.975 74.0199 704.332 72.0518 702.364 69.5778C700.452 67.0475 699.384 64.2079 699.159 61.0591H715.184C715.409 62.5773 716.112 63.7581 717.293 64.6015C718.474 65.4449 719.936 65.8667 721.679 65.8667C723.028 65.8667 724.097 65.5855 724.884 65.0232C725.671 64.4609 726.065 63.73 726.065 62.8303C726.065 61.6495 725.418 60.7779 724.125 60.2156C722.831 59.6533 720.695 59.0348 717.715 58.3601C714.341 57.6853 711.529 56.9262 709.28 56.0828C707.031 55.2394 705.063 53.8618 703.376 51.95C701.746 50.0382 700.93 47.4516 700.93 44.1904C700.93 41.3789 701.689 38.8486 703.207 36.5994C704.726 34.2941 706.947 32.4666 709.871 31.1171C712.851 29.7676 716.421 29.0929 720.582 29.0929C726.767 29.0929 731.631 30.6111 735.174 33.6474C738.716 36.6838 740.768 40.6761 741.331 45.6242H726.402C726.121 44.106 725.446 42.9533 724.378 42.1661C723.366 41.3227 721.988 40.901 720.245 40.901C718.895 40.901 717.855 41.154 717.124 41.6601C716.449 42.1661 716.112 42.869 716.112 43.7686C716.112 44.8932 716.759 45.7648 718.052 46.3833C719.345 46.9456 721.426 47.536 724.293 48.1545C727.723 48.8855 730.563 49.7008 732.812 50.6005C735.117 51.5001 737.114 52.9621 738.8 54.9863C740.544 56.9544 741.415 59.6533 741.415 63.0833C741.415 65.8385 740.6 68.3126 738.969 70.5055C737.395 72.6985 735.117 74.4416 732.137 75.7348C729.213 76.9719 725.755 77.5904 721.763 77.5904ZM794.751 52.7934C794.751 54.0867 794.666 55.3799 794.497 56.6732H763.206C763.375 59.2597 764.078 61.1996 765.315 62.4929C766.608 63.73 768.239 64.3485 770.207 64.3485C772.962 64.3485 774.93 63.1114 776.111 60.6374H793.738C793.007 63.8986 791.574 66.8225 789.437 69.4091C787.356 71.9394 784.714 73.9355 781.509 75.3975C778.304 76.8594 774.761 77.5904 770.881 77.5904C766.214 77.5904 762.053 76.6064 758.398 74.6384C754.8 72.6704 751.96 69.8589 749.88 66.204C747.856 62.5491 746.843 58.2476 746.843 53.2995C746.843 48.3513 747.856 44.0779 749.88 40.4792C751.904 36.8244 754.715 34.0129 758.314 32.0449C761.969 30.0769 766.158 29.0929 770.881 29.0929C775.548 29.0929 779.681 30.0488 783.28 31.9606C786.878 33.8723 789.69 36.6276 791.714 40.2262C793.738 43.7686 794.751 47.9577 794.751 52.7934ZM777.882 48.6606C777.882 46.6363 777.207 45.0619 775.858 43.9373C774.508 42.7565 772.821 42.1661 770.797 42.1661C768.773 42.1661 767.114 42.7284 765.821 43.853C764.527 44.9213 763.684 46.5239 763.29 48.6606H777.882ZM819.347 41.407C822.158 41.3508 824.154 40.8447 825.335 39.8888C826.572 38.933 827.19 37.4991 827.19 35.5873C827.19 34.2378 826.909 31.5388 826.347 27.4903C826.066 25.7472 825.813 23.9479 825.588 22.0924C825.363 20.1806 825.251 18.4937 825.251 17.0317C825.251 11.8587 826.825 7.8383 829.974 4.97062C833.179 2.10294 837.48 0.669104 842.878 0.669104H849.12V14.0797H846.083C844.284 14.0797 842.991 14.4733 842.204 15.2605C841.416 16.0477 841.023 17.2285 841.023 18.803C841.023 19.8713 841.248 22.3735 841.698 26.3095C842.204 31.3701 842.457 34.6595 842.457 36.1777C842.457 39.3828 841.698 42.0255 840.179 44.106C838.717 46.1865 836.468 47.5079 833.432 48.0702V48.2389C836.468 48.8011 838.717 50.1225 840.179 52.203C841.698 54.2835 842.457 56.9262 842.457 60.1313C842.457 61.6495 842.204 64.9389 841.698 69.9995C841.248 73.9355 841.023 76.4658 841.023 77.5904C841.023 79.1086 841.416 80.2613 842.204 81.0485C842.991 81.8357 844.284 82.2293 846.083 82.2293H849.12V95.6399H842.878C837.48 95.6399 833.179 94.2061 829.974 91.3384C826.825 88.4707 825.251 84.4503 825.251 79.2773C825.251 77.8153 825.363 76.1566 825.588 74.301C825.813 72.3892 826.066 70.5618 826.347 68.8187C826.909 64.7702 827.19 62.0993 827.19 60.806C827.19 56.9825 824.576 54.9863 819.347 54.8177V41.407ZM40.6778 155.106C39.7219 153.531 38.4006 152.322 36.7137 151.479C35.083 150.635 33.1431 150.214 30.894 150.214C26.733 150.214 23.4436 151.563 21.0258 154.262C18.6642 156.961 17.4834 160.588 17.4834 165.142C17.4834 170.259 18.7485 174.167 21.2788 176.866C23.8654 179.509 27.6046 180.83 32.4965 180.83C38.2881 180.83 42.4209 178.216 44.895 172.986H28.2793V161.094H59.1491V177.119C57.8558 180.268 55.944 183.22 53.4137 185.975C50.9396 188.73 47.7908 191.008 43.9672 192.807C40.1437 194.55 35.7859 195.422 30.894 195.422C24.9337 195.422 19.6482 194.157 15.0374 191.626C10.4828 189.04 6.94041 185.469 4.41011 180.915C1.93603 176.304 0.698993 171.046 0.698993 165.142C0.698993 159.295 1.93603 154.093 4.41011 149.539C6.94041 144.928 10.4828 141.358 15.0374 138.827C19.5919 136.241 24.8494 134.947 30.8096 134.947C38.2881 134.947 44.4733 136.747 49.3652 140.345C54.2571 143.944 57.2935 148.864 58.4743 155.106H40.6778ZM83.0888 156.033C84.9443 153.334 87.1935 151.198 89.8363 149.623C92.479 148.049 95.3186 147.262 98.355 147.262V164.889H93.7161C90.1174 164.889 87.4465 165.592 85.7034 166.998C83.9603 168.404 83.0888 170.85 83.0888 174.336V195H66.5575V147.683H83.0888V156.033ZM149.49 170.793C149.49 172.087 149.405 173.38 149.237 174.673H117.945C118.114 177.26 118.817 179.2 120.054 180.493C121.347 181.73 122.978 182.348 124.946 182.348C127.701 182.348 129.669 181.111 130.85 178.637H148.477C147.746 181.899 146.313 184.823 144.176 187.409C142.095 189.939 139.453 191.936 136.248 193.397C133.043 194.859 129.5 195.59 125.62 195.59C120.953 195.59 116.792 194.606 113.137 192.638C109.539 190.67 106.699 187.859 104.619 184.204C102.595 180.549 101.582 176.248 101.582 171.299C101.582 166.351 102.595 162.078 104.619 158.479C106.643 154.824 109.454 152.013 113.053 150.045C116.708 148.077 120.897 147.093 125.62 147.093C130.287 147.093 134.42 148.049 138.019 149.961C141.617 151.872 144.429 154.628 146.453 158.226C148.477 161.769 149.49 165.958 149.49 170.793ZM132.621 166.661C132.621 164.636 131.946 163.062 130.597 161.937C129.247 160.757 127.56 160.166 125.536 160.166C123.512 160.166 121.853 160.728 120.56 161.853C119.266 162.921 118.423 164.524 118.029 166.661H132.621ZM153.556 171.299C153.556 166.408 154.427 162.134 156.17 158.479C157.97 154.824 160.388 152.013 163.424 150.045C166.517 148.077 169.947 147.093 173.714 147.093C176.975 147.093 179.787 147.74 182.148 149.033C184.51 150.326 186.337 152.069 187.631 154.262V147.683H204.162V195H187.631V188.421C186.337 190.614 184.482 192.357 182.064 193.651C179.702 194.944 176.919 195.59 173.714 195.59C169.947 195.59 166.517 194.606 163.424 192.638C160.388 190.67 157.97 187.859 156.17 184.204C154.427 180.493 153.556 176.191 153.556 171.299ZM187.631 171.299C187.631 168.263 186.787 165.873 185.1 164.13C183.47 162.387 181.445 161.516 179.028 161.516C176.553 161.516 174.501 162.387 172.871 164.13C171.24 165.817 170.425 168.207 170.425 171.299C170.425 174.336 171.24 176.754 172.871 178.553C174.501 180.296 176.553 181.168 179.028 181.168C181.445 181.168 183.47 180.296 185.1 178.553C186.787 176.81 187.631 174.392 187.631 171.299ZM241.5 180.915V195H234.331C222.241 195 216.197 189.012 216.197 177.035V161.431H210.377V147.683H216.197V136.213H232.812V147.683H241.415V161.431H232.812V177.288C232.812 178.581 233.094 179.509 233.656 180.071C234.274 180.633 235.286 180.915 236.692 180.915H241.5ZM271.18 132.501L269.24 172.733H255.155L253.215 132.501H271.18ZM262.24 195.675C259.316 195.675 256.954 194.888 255.155 193.313C253.412 191.682 252.54 189.63 252.54 187.156C252.54 184.682 253.412 182.63 255.155 180.999C256.954 179.368 259.316 178.553 262.24 178.553C265.107 178.553 267.413 179.368 269.156 180.999C270.955 182.63 271.855 184.682 271.855 187.156C271.855 189.574 270.955 191.598 269.156 193.229C267.413 194.859 265.107 195.675 262.24 195.675ZM33.0869 290.818C27.8576 290.986 25.243 292.982 25.243 296.806C25.243 298.099 25.5241 300.77 26.0864 304.819C26.3675 306.562 26.6206 308.389 26.8455 310.301C27.0704 312.157 27.1829 313.815 27.1829 315.277C27.1829 320.45 25.5803 324.471 22.3753 327.338C19.2265 330.206 14.9531 331.64 9.55506 331.64H3.31364V318.229H6.35001C8.14934 318.229 9.44261 317.836 10.2298 317.048C11.017 316.261 11.4106 315.109 11.4106 313.59C11.4106 312.466 11.1857 309.936 10.7359 305.999C10.2298 300.939 9.97678 297.649 9.97678 296.131C9.97678 292.926 10.7078 290.283 12.1697 288.203C13.6879 286.123 15.9652 284.801 19.0015 284.239V284.07C15.9652 283.508 13.6879 282.186 12.1697 280.106C10.7078 278.026 9.97678 275.383 9.97678 272.178C9.97678 270.66 10.2298 267.37 10.7359 262.31C11.1857 258.374 11.4106 255.871 11.4106 254.803C11.4106 253.229 11.017 252.048 10.2298 251.261C9.44261 250.473 8.14934 250.08 6.35001 250.08H3.31364V236.669H9.55506C14.9531 236.669 19.2265 238.103 22.3753 240.971C25.5803 243.838 27.1829 247.859 27.1829 253.032C27.1829 254.494 27.0704 256.181 26.8455 258.092C26.6206 259.948 26.3675 261.747 26.0864 263.49C25.5241 267.539 25.243 270.238 25.243 271.587C25.243 273.499 25.8334 274.933 27.0142 275.889C28.2512 276.845 30.2755 277.351 33.0869 277.407V290.818ZM55.032 280.781C52.1081 280.781 49.7465 279.994 47.9472 278.419C46.2041 276.789 45.3325 274.736 45.3325 272.262C45.3325 269.788 46.2041 267.736 47.9472 266.105C49.7465 264.474 52.1081 263.659 55.032 263.659C57.8997 263.659 60.2051 264.474 61.9482 266.105C63.7475 267.736 64.6472 269.788 64.6472 272.262C64.6472 274.68 63.7475 276.704 61.9482 278.335C60.2051 279.965 57.8997 280.781 55.032 280.781ZM63.9725 298.83L54.9477 323.459H44.4891L48.875 298.83H63.9725Z" fill="#DFDFDF"/>
</svg>
