<svg width="60" height="60" viewBox="0 0 60 60" fill="none" xmlns="http://www.w3.org/2000/svg">
<path d="M44.099 8.00003L16.5 7.99999C12.9033 7.99999 10 10.9033 10 14.5V44.8333C10 48.43 12.9033 51.3333 16.5 51.3333L36 51.3334C37.755 51.3334 39.445 50.6184 40.68 49.3617L48.779 40.3947C49.949 39.1814 50.599 37.5564 50.599 35.8664V14.5C50.599 10.9034 47.6956 8.00003 44.099 8.00003ZM45.91 34.7214L34.3767 46.873C33.575 47.6964 32.1883 47.133 32.1883 45.9847V35.8664C32.1883 33.483 33.6167 32.5547 36 32.5547H45C46.1267 32.5547 46.7117 33.9197 45.91 34.7214Z" fill="#E8E8E8"/>
<rect x="20" y="16.0547" width="21" height="3" rx="1.5" fill="white"/>
<rect x="20" y="23.0547" width="21" height="3" rx="1.5" fill="white"/>
</svg>
