<svg width="72" height="75" viewBox="0 0 72 75" fill="none" xmlns="http://www.w3.org/2000/svg">
<path d="M1.14772 47.773L9.47658 64.0446C10.8831 66.7749 13.6962 68.4848 16.7574 68.4848H51.7551C52.5824 68.4848 53.4098 68.7054 54.1269 69.1467L63.1452 74.69C64.469 75.4898 66.1789 74.6624 66.3444 73.118L71.6671 23.6138C71.9153 21.2972 71.1707 18.9806 69.5987 17.2431L56.085 2.29529L1.12012 47.773H1.14772Z" fill="black"/>
<path d="M7.3212 5.48821L0.123096 42.6646C-0.676694 46.8566 2.52247 50.7177 6.76963 50.7177H44.9113C48.2208 50.7177 51.0338 48.3183 51.5854 45.064L57.7907 7.88758C58.4802 3.75074 55.3086 0 51.1166 0H13.9677C10.7134 0 7.92794 2.28905 7.3212 5.48821Z" fill="#5DE0DC"/>
<path fill-rule="evenodd" clip-rule="evenodd" d="M38.9632 13.5636C39.3913 14.3708 39.0839 15.3723 38.2767 15.8003L34.1067 18.0117C34.0948 18.018 34.0895 18.0227 34.0877 18.0243C34.0857 18.0262 34.0844 18.0279 34.0832 18.0299C34.0802 18.0346 34.0753 18.0454 34.0743 18.0617C34.0732 18.078 34.0765 18.0895 34.0788 18.0945C34.0798 18.0967 34.0809 18.0985 34.0826 18.1006C34.0842 18.1025 34.0888 18.1078 34.0997 18.1157L37.7293 20.7141C38.4723 21.246 38.6434 22.2795 38.1115 23.0224C37.5796 23.7654 36.5462 23.9365 35.8032 23.4046L32.1736 20.8061C30.1387 19.3493 30.3455 16.261 32.5565 15.0885L36.7265 12.8771C37.5337 12.449 38.5351 12.7564 38.9632 13.5636Z" fill="black"/>
<path fill-rule="evenodd" clip-rule="evenodd" d="M17.2936 22.8337C16.8656 22.0265 17.1729 21.0251 17.9802 20.597L22.1501 18.3856C22.162 18.3794 22.1673 18.3747 22.1691 18.373C22.1711 18.3711 22.1724 18.3695 22.1737 18.3675C22.1766 18.3628 22.1815 18.3519 22.1826 18.3356C22.1837 18.3193 22.1803 18.3079 22.178 18.3028C22.177 18.3007 22.1759 18.2989 22.1742 18.2967C22.1727 18.2949 22.168 18.2895 22.1571 18.2817L18.5275 15.6832C17.7845 15.1513 17.6134 14.1179 18.1453 13.3749C18.6772 12.632 19.7107 12.4609 20.4536 12.9928L24.0832 15.5912C26.1182 17.0481 25.9114 20.1364 23.7004 21.3089L19.5304 23.5202C18.7231 23.9483 17.7217 23.641 17.2936 22.8337Z" fill="black"/>
<path d="M28.174 39.3061C33.0003 38.8097 36.6407 34.8935 36.9717 30.2326C37.0268 29.2674 36.3373 28.5779 35.3996 28.6882L18.935 30.3981C17.9973 30.5084 17.4457 31.3358 17.7215 32.2459C18.9902 36.7689 23.3752 39.8301 28.2015 39.3337L28.174 39.3061Z" fill="black"/>
</svg>
