<svg width="72" height="75" viewBox="0 0 72 75" fill="none" xmlns="http://www.w3.org/2000/svg">
<path d="M1.14821 47.7731L9.47697 64.0445C10.8835 66.7747 13.6965 68.4846 16.7577 68.4846H51.755C52.5823 68.4846 53.4097 68.7053 54.1267 69.1465L63.145 74.6898C64.4687 75.4896 66.1786 74.6622 66.3441 73.1178L71.6667 23.6142C71.9149 21.2976 71.1703 18.981 69.5983 17.2435L56.0848 2.2959L1.12061 47.7731H1.14821Z" fill="black"/>
<path d="M7.32112 5.48815L0.123094 42.6641C-0.676686 46.8561 2.52244 50.7171 6.76955 50.7171H44.9108C48.2202 50.7171 51.0333 48.3178 51.5848 45.0635L57.79 7.88749C58.4795 3.75069 55.3079 0 51.116 0H13.9676C10.7133 0 7.92785 2.28903 7.32112 5.48815Z" fill="#EB4852"/>
<path d="M28.3819 28.0804C35.0419 27.806 40.4744 31.1171 41.4652 35.6941C41.6522 36.6441 40.7885 37.4386 39.493 37.4782L16.7711 38.3979C15.4755 38.4374 14.6254 37.7033 14.8976 36.7555C16.111 32.0611 21.7565 28.323 28.4165 28.0486L28.3819 28.0804Z" fill="black"/>
<path fill-rule="evenodd" clip-rule="evenodd" d="M20.2655 13.1278C19.6625 12.4068 18.5891 12.3113 17.8682 12.9144C17.1472 13.5174 17.0516 14.5908 17.6547 15.3117L19.4858 17.5008L17.141 19.6342C16.4458 20.2668 16.395 21.3432 17.0276 22.0384C17.6601 22.7336 18.7365 22.7844 19.4317 22.1519L21.6716 20.1138L23.352 22.1227C23.9551 22.8436 25.0285 22.9392 25.7494 22.3361C26.4704 21.7331 26.5659 20.6597 25.9629 19.9388L24.1915 17.8211L26.37 15.839C27.0652 15.2064 27.116 14.13 26.4834 13.4348C25.8509 12.7396 24.7745 12.6888 24.0793 13.3213L22.0056 15.2081L20.2655 13.1278Z" fill="black"/>
<path fill-rule="evenodd" clip-rule="evenodd" d="M35.0097 13.9111C34.4066 13.1902 33.3333 13.0946 32.6123 13.6977C31.8913 14.3008 31.7958 15.3741 32.3989 16.095L34.23 18.2841L31.8852 20.4176C31.1899 21.0501 31.1391 22.1265 31.7717 22.8217C32.4043 23.517 33.4807 23.5678 34.1759 22.9352L36.4158 20.8972L38.0962 22.906C38.6993 23.627 39.7726 23.7225 40.4935 23.1195C41.2145 22.5164 41.3101 21.443 40.707 20.7221L38.9356 18.6045L41.1141 16.6223C41.8093 15.9897 41.8601 14.9133 41.2276 14.2181C40.595 13.5229 39.5186 13.4721 38.8234 14.1047L36.7498 15.9914L35.0097 13.9111Z" fill="black"/>
</svg>
