<svg width="36" height="38" viewBox="0 0 36 38" fill="none" xmlns="http://www.w3.org/2000/svg">
<path d="M1.17891 24.4055L5.28881 32.4347C5.98286 33.782 7.37097 34.6258 8.88156 34.6258H26.1513C26.5595 34.6258 26.9678 34.7347 27.3216 34.9524L31.7718 37.6878C32.425 38.0825 33.2688 37.6742 33.3504 36.9121L35.9769 12.4841C36.0994 11.3409 35.732 10.1978 34.9563 9.34039L28.2879 1.96436L1.16528 24.4055H1.17891Z" fill="black"/>
<path d="M4.22644 3.5385L0.674511 21.8833C0.279853 23.9519 1.85849 25.8571 3.95427 25.8571H22.7754C24.4085 25.8571 25.7966 24.6732 26.0688 23.0673L29.1308 4.72247C29.471 2.68114 27.906 0.830322 25.8374 0.830322H7.5062C5.90034 0.830322 4.52584 1.95986 4.22644 3.5385Z" fill="#5DE0DC"/>
<path d="M12.3967 11.1155C13.3902 11.1155 14.1931 10.3125 14.1931 9.31908C14.1931 8.32563 13.3902 7.52271 12.3967 7.52271C11.4033 7.52271 10.6003 8.32563 10.6003 9.31908C10.6003 10.3125 11.4033 11.1155 12.3967 11.1155Z" fill="black"/>
<path d="M17.9128 11.6174C18.9063 11.6174 19.7092 10.8145 19.7092 9.82104C19.7092 8.82759 18.9063 8.02466 17.9128 8.02466C16.9194 8.02466 16.1165 8.82759 16.1165 9.82104C16.1165 10.8145 16.9194 11.6174 17.9128 11.6174Z" fill="black"/>
<path d="M15.3631 19.1256C17.7446 18.8807 19.541 16.9482 19.7043 14.6483C19.7315 14.172 19.3913 13.8318 18.9286 13.8862L10.8041 14.73C10.3414 14.7844 10.0692 15.1927 10.2053 15.6418C10.8313 17.8736 12.9951 19.3842 15.3767 19.1393L15.3631 19.1256Z" fill="black"/>
</svg>
