<svg width="411" height="80" viewBox="0 0 411 80" fill="none" xmlns="http://www.w3.org/2000/svg">
<g clip-path="url(#clip0_322_612)">
<g clip-path="url(#clip1_322_612)">
<path d="M156.258 7.46875C156.568 7.46875 156.821 8.17091 156.821 8.48121V21.2176C156.821 21.5279 156.57 21.7805 156.258 21.7805H137.047C136.736 21.7805 136.484 22.0311 136.484 22.3434V71.0293C136.484 71.3396 136.233 71.5922 135.921 71.5922H120.833C120.523 71.5922 120.27 71.3415 120.27 71.0293V22.3414C120.27 22.0311 120.02 21.7785 119.707 21.7785H100.5C100.19 21.7785 99.9375 21.5279 99.9375 21.2156V8.04759C99.9375 7.72734 100.196 7.46875 100.516 7.46875H156.258Z" fill="black"/>
<path d="M217.391 71.5504C205.663 71.5504 198.582 63.5799 198.582 49.3458V26.801C198.582 26.4867 198.836 26.2341 199.148 26.2341H213.41C213.725 26.2341 213.977 26.4887 213.977 26.801V40.5499C213.977 48.7013 214.67 57.9408 223.959 57.9408C230.658 57.9408 235.472 52.2897 235.472 40.5499V26.801C235.472 26.4867 235.726 26.2341 236.039 26.2341H250.209C250.524 26.2341 250.776 26.4887 250.776 26.801V71.0372C250.776 71.3515 250.522 71.6041 250.209 71.6041H236.039C235.724 71.6041 235.472 71.3495 235.472 71.0372V63.9818C231.696 68.5468 227.229 71.5464 217.387 71.5464V71.5504H217.391Z" fill="black"/>
<path d="M258.656 71.5959V26.7908C258.656 26.4766 258.91 26.2239 259.223 26.2239H273.393C273.708 26.2239 273.96 26.4785 273.96 26.7908V34.7215C278.981 28.225 282.203 25.3368 291.952 25.3368C303.771 25.3368 310.851 33.3072 310.851 47.5414V71.029C310.851 71.3433 310.596 71.5959 310.284 71.5959H295.932C295.618 71.5959 295.365 71.3413 295.365 71.029V54.2308C295.365 46.0794 293.115 40.3248 284.755 40.3248C277.238 40.3248 273.962 46.7298 273.962 54.2308V71.029C273.962 71.3433 273.708 71.5959 273.395 71.5959H258.658H258.656Z" fill="black"/>
<path d="M377.073 33.9901C377.073 28.888 379.939 26.2026 385.041 26.2026H411.186C411.497 26.2026 411.749 26.4533 411.749 26.7656V39.1658C411.749 39.4761 411.499 39.7287 411.186 39.7287H393.05C392.739 39.7287 392.487 39.9793 392.487 40.2916V71.0534C392.487 71.3637 392.236 71.6163 391.924 71.6163H377.652C377.341 71.6163 377.089 71.3657 377.089 71.0534V33.994H377.073V33.9901Z" fill="black"/>
<path d="M157.115 33.9901C157.115 28.888 159.981 26.2026 165.084 26.2026H191.229C191.539 26.2026 191.792 26.4533 191.792 26.7656V39.1658C191.792 39.4761 191.541 39.7287 191.229 39.7287H173.092C172.781 39.7287 172.529 39.9793 172.529 40.2916V71.0534C172.529 71.3637 172.278 71.6163 171.966 71.6163H157.694C157.384 71.6163 157.131 71.3657 157.131 71.0534V33.994H157.115V33.9901Z" fill="black"/>
<path d="M337.087 48.4706L351.228 26.4927C351.331 26.3316 351.508 26.2341 351.701 26.2341H369.255C369.707 26.2341 369.975 26.7414 369.719 27.1133L354.5 49.2861C354.365 49.483 354.369 49.7436 354.51 49.9346L369.671 70.711C369.942 71.0829 369.677 71.6041 369.218 71.6041H351.691C351.506 71.6041 351.331 71.5126 351.228 71.3594L337.123 50.7242C336.67 50.0499 336.652 49.1628 337.087 48.4725V48.4686V48.4706Z" fill="black"/>
<path d="M334.685 7.92728H319.325C319.014 7.92728 318.762 8.17791 318.762 8.4902V71.0363C318.762 71.3466 319.012 71.5992 319.325 71.5992H334.685C334.995 71.5992 335.248 71.3485 335.248 71.0363V8.48822C335.248 8.17791 334.997 7.92529 334.685 7.92529V7.92728Z" fill="black"/>
</g>
</g>
<path d="M1.22146 50.9579L10.1055 68.3141C11.6058 71.2264 14.6063 73.0502 17.8717 73.0502H55.2022C56.0847 73.0502 56.9672 73.2856 57.7321 73.7563L67.3515 79.6691C68.7635 80.5222 70.5874 79.6397 70.7639 77.9923L76.4415 25.1883C76.7062 22.7172 75.9119 20.2462 74.2352 18.3929L59.8207 2.44873L1.19202 50.9579H1.22146Z" fill="black"/>
<path d="M7.80921 5.85404L0.131301 45.5085C-0.721801 49.98 2.69062 54.0984 7.22088 54.0984H47.905C51.4351 54.0984 54.4356 51.5391 55.024 48.0678L61.6429 8.41334C62.3783 4.00075 58.9953 0 54.5239 0H14.8988C11.4276 0 8.4564 2.44163 7.80921 5.85404Z" fill="#5DE0DC"/>
<path d="M25.47 22.2474C27.6174 22.2474 29.3531 20.5117 29.3531 18.3643C29.3531 16.2168 27.6174 14.4812 25.47 14.4812C23.3225 14.4812 21.5869 16.2168 21.5869 18.3643C21.5869 20.5117 23.3225 22.2474 25.47 22.2474Z" fill="black"/>
<path d="M37.3944 23.3008C39.5419 23.3008 41.2775 21.5652 41.2775 19.4178C41.2775 17.2703 39.5419 15.5347 37.3944 15.5347C35.2469 15.5347 33.5114 17.2703 33.5114 19.4178C33.5114 21.5652 35.2469 23.3008 37.3944 23.3008Z" fill="black"/>
<path d="M31.883 39.5375C37.031 39.008 40.9141 34.8307 41.2671 29.8592C41.326 28.8296 40.5905 28.0942 39.5903 28.2118L22.0282 30.0357C21.028 30.1534 20.4397 31.0359 20.7338 32.0067C22.087 36.8311 26.7644 40.0964 31.9124 39.5669L31.883 39.5375Z" fill="black"/>
<defs>
<clipPath id="clip0_322_612">
<rect width="312" height="64" fill="white" transform="translate(99.9375 7.46875)"/>
</clipPath>
<clipPath id="clip1_322_612">
<rect width="311.813" height="64.1214" fill="white" transform="translate(99.9375 7.46875)"/>
</clipPath>
</defs>
</svg>
