<svg width="136" height="136" viewBox="0 0 136 136" fill="none" xmlns="http://www.w3.org/2000/svg">
<path d="M41.8605 75.3297L48.1072 87.5334C49.1621 89.5812 51.2719 90.8636 53.5678 90.8636H79.8161C80.4366 90.8636 81.0571 91.029 81.5949 91.36L88.3586 95.5175C89.3515 96.1174 90.6339 95.4968 90.758 94.3385L94.7501 57.2104C94.9362 55.4729 94.3777 53.7354 93.1987 52.4323L83.0635 41.2215L41.8398 75.3297H41.8605Z" fill="black"/>
<path d="M46.4909 43.6162L41.0923 71.4985C40.4925 74.6425 42.8919 77.5383 46.0772 77.5383H74.6835C77.1656 77.5383 79.2754 75.7387 79.6891 73.298L84.343 45.4157C84.8601 42.3131 82.4814 39.5 79.3374 39.5H51.4758C49.0351 39.5 46.946 41.2168 46.4909 43.6162Z" fill="#5DE0DC"/>
<path fill-rule="evenodd" clip-rule="evenodd" d="M70.2228 49.6727C70.5438 50.2781 70.3133 51.0292 69.7079 51.3502L66.5804 53.0087C66.5715 53.0135 66.5675 53.017 66.5662 53.0182C66.5647 53.0196 66.5637 53.0209 66.5627 53.0224C66.5605 53.0259 66.5569 53.034 66.5561 53.0463C66.5552 53.0585 66.5578 53.0671 66.5595 53.0709C66.5602 53.0725 66.561 53.0738 66.5623 53.0754C66.5635 53.0768 66.567 53.0808 66.5752 53.0867L69.2974 55.0356C69.8546 55.4345 69.9829 56.2096 69.584 56.7668C69.1851 57.324 68.41 57.4523 67.8528 57.0534L65.1306 55.1045C63.6044 54.0119 63.7595 51.6957 65.4177 50.8163L68.5452 49.1578C69.1507 48.8367 69.9017 49.0673 70.2228 49.6727Z" fill="black"/>
<path fill-rule="evenodd" clip-rule="evenodd" d="M53.9686 56.6253C53.6476 56.0199 53.8781 55.2688 54.4835 54.9478L57.611 53.2892C57.6199 53.2845 57.6239 53.281 57.6252 53.2798C57.6267 53.2784 57.6277 53.2771 57.6287 53.2756C57.6309 53.2721 57.6345 53.2639 57.6353 53.2517C57.6362 53.2395 57.6336 53.2309 57.6319 53.2271C57.6312 53.2255 57.6304 53.2241 57.6291 53.2226C57.6279 53.2211 57.6244 53.2171 57.6162 53.2113L54.894 51.2624C54.3368 50.8635 54.2085 50.0884 54.6074 49.5312C55.0063 48.974 55.7814 48.8457 56.3386 49.2446L59.0608 51.1934C60.5871 52.2861 60.4319 54.6023 58.7737 55.4817L55.6462 57.1402C55.0408 57.4612 54.2897 57.2307 53.9686 56.6253Z" fill="black"/>
<path d="M62.131 68.9796C65.7507 68.6073 68.481 65.6701 68.7292 62.1745C68.7706 61.4506 68.2535 60.9335 67.5502 61.0162L55.2017 62.2986C54.4985 62.3814 54.0848 63.0019 54.2916 63.6845C55.2431 67.0767 58.5319 69.3726 62.1516 69.0003L62.131 68.9796Z" fill="black"/>
<circle cx="68" cy="68" r="65" stroke="#27CDC8" stroke-width="5" stroke-linecap="square"/>
</svg>
