<svg width="160" height="160" viewBox="0 0 160 160" fill="none" xmlns="http://www.w3.org/2000/svg">
<path d="M80 160C124.183 160 160 124.183 160 80C160 35.8172 124.183 0 80 0C35.8172 0 0 35.8172 0 80C0 124.183 35.8172 160 80 160Z" fill="black"/>
<path d="M38.3858 120.235L68.5446 30.3939C69.6733 27.0076 72.8479 24.7148 76.4105 24.7148H112.777C116.693 24.7148 119.479 28.5243 118.315 32.228L90.2729 121.999C89.1795 125.456 85.9696 127.819 82.3364 127.819H43.8885C39.9379 127.819 37.116 123.939 38.3858 120.165V120.235Z" fill="#E663B3"/>
<path d="M80.9882 87.9604C74.1602 87.9604 68.1961 83.0275 67.0256 76.1715C66.8584 75.1682 67.5272 74.1928 68.5584 74.0256C69.5617 73.8584 70.5371 74.5272 70.7044 75.5584C71.6241 80.9651 76.6127 84.7554 82.0751 84.1701C83.1063 84.0586 84.026 84.8111 84.1375 85.8423C84.249 86.8735 83.4965 87.7932 82.4653 87.9046C81.9637 87.9604 81.4899 87.9883 80.9882 87.9883V87.9604Z" fill="black"/>
<path d="M74.5526 69.762C76.8124 69.762 78.6444 67.8985 78.6444 65.5998C78.6444 63.301 76.8124 61.4375 74.5526 61.4375C72.2928 61.4375 70.4609 63.301 70.4609 65.5998C70.4609 67.8985 72.2928 69.762 74.5526 69.762Z" fill="black"/>
<path d="M87.5136 69.762C89.7734 69.762 91.6053 67.8985 91.6053 65.5998C91.6053 63.301 89.7734 61.4375 87.5136 61.4375C85.2538 61.4375 83.4219 63.301 83.4219 65.5998C83.4219 67.8985 85.2538 69.762 87.5136 69.762Z" fill="black"/>
</svg>
