<svg width="161" height="160" viewBox="0 0 161 160" fill="none" xmlns="http://www.w3.org/2000/svg">
<path d="M80.4219 160C124.605 160 160.422 124.183 160.422 80C160.422 35.8172 124.605 0 80.4219 0C36.2391 0 0.421875 35.8172 0.421875 80C0.421875 124.183 36.2391 160 80.4219 160Z" fill="black"/>
<path d="M31.3218 72.6288L54.955 38.202C56.3306 36.2266 58.5529 35.0273 60.9515 35.0273H104.514C105.854 35.0273 106.63 36.5088 105.854 37.6023L76.6834 79.9656C76.2954 80.53 76.2954 81.306 76.6834 81.8704L105.643 121.165C106.454 122.258 105.643 123.775 104.302 123.775H60.7045C58.3765 123.775 56.1896 122.682 54.8139 120.812L31.4629 89.0309C27.9003 84.1984 27.7945 77.6023 31.216 72.664L31.3218 72.6288Z" fill="#7E6FF4"/>
<path d="M101.261 122.038L75.2645 89.3396C71.6667 84.8246 71.5256 78.5107 74.8765 73.8193L101.296 37.0998C103.201 34.4543 107.116 34.5601 108.915 37.2409L132.09 72.232C134.947 76.5354 134.947 82.1438 132.09 86.4472L108.704 121.721C106.975 124.331 103.166 124.507 101.226 122.038H101.261Z" fill="white"/>
<path d="M98.9082 75.254C101.166 75.254 103.035 73.4197 103.035 71.127C103.035 68.8342 101.201 67 98.9082 67C96.6155 67 94.7812 68.8342 94.7812 71.127C94.7812 73.4197 96.6155 75.254 98.9082 75.254Z" fill="black"/>
<path d="M111.58 75.254C113.838 75.254 115.707 73.4198 115.707 71.127C115.707 68.8342 113.873 67 111.58 67C109.287 67 107.453 68.8342 107.453 71.127C107.453 73.4198 109.287 75.254 111.58 75.254Z" fill="black"/>
<path d="M105.247 94.4521C104.812 94.4521 104.377 94.273 104.045 93.9404L97.0341 86.9297C96.3688 86.2644 96.3688 85.1642 97.0341 84.4989C97.6993 83.8337 98.7996 83.8337 99.4648 84.4989L105.273 90.3071L111.081 84.4989C111.746 83.8337 112.847 83.8337 113.512 84.4989C114.177 85.1642 114.177 86.2644 113.512 86.9297L106.501 93.9404C106.169 94.273 105.734 94.4521 105.299 94.4521H105.247Z" fill="black"/>
</svg>
