<svg width="161" height="160" viewBox="0 0 161 160" fill="none" xmlns="http://www.w3.org/2000/svg">
<path d="M80.4219 160C124.605 160 160.422 124.183 160.422 80C160.422 35.8172 124.605 0 80.4219 0C36.2391 0 0.421875 35.8172 0.421875 80C0.421875 124.183 36.2391 160 80.4219 160Z" fill="black"/>
<path d="M29.8556 76.6891L58.3553 33.5221C59.959 31.1165 62.6653 29.6464 65.5721 29.6464H109.875C112.682 29.6464 114.319 32.787 112.748 35.0924L82.3778 79.3954C81.4423 80.7653 81.4757 82.5695 82.4447 83.9059L112.414 124.801C114.085 127.106 112.448 130.347 109.608 130.347H65.405C62.5985 130.347 59.959 128.977 58.3553 126.705L30.0227 86.6122C27.9512 83.672 27.8844 79.7295 29.8556 76.7226V76.6891Z" fill="#0FD28A"/>
<path d="M64.1341 85.4521C63.6991 85.4521 63.2642 85.273 62.9316 84.9404L55.9208 77.9297C55.2556 77.2644 55.2556 76.1642 55.9208 75.4989C56.5861 74.8337 57.6863 74.8337 58.3515 75.4989L64.1597 81.3071L69.9679 75.4989C70.6331 74.8337 71.7334 74.8337 72.3986 75.4989C73.0639 76.1642 73.0639 77.2644 72.3986 77.9297L65.3879 84.9404C65.0552 85.273 64.6203 85.4521 64.1853 85.4521H64.1341Z" fill="black"/>
<path d="M57.4335 66.0233C60.2067 66.0233 62.4452 63.7848 62.4452 61.0117C62.4452 58.2385 60.2067 56 57.4335 56C54.6604 56 52.4219 58.2385 52.4219 61.0117C52.4219 63.7848 54.6604 66.0233 57.4335 66.0233Z" fill="black"/>
<path d="M71.4001 65.9565C74.1398 65.9565 76.3784 63.7179 76.3784 60.9782C76.3784 58.2385 74.1398 56 71.4001 56C68.6604 56 66.4219 58.2385 66.4219 60.9782C66.4219 63.7179 68.6604 65.9565 71.4001 65.9565Z" fill="black"/>
</svg>
