<svg width="500" height="56" viewBox="0 0 500 56" fill="none" xmlns="http://www.w3.org/2000/svg">
<rect width="500" height="56" rx="28" fill="#FEE500"/>
<path d="M200.172 22.0781C200.172 23.6927 200 25.125 199.656 26.375C199.312 27.625 198.672 28.7943 197.734 29.8828C196.802 30.9661 195.484 31.9349 193.781 32.7891L192.695 31.2812C194.148 30.5625 195.279 29.7682 196.086 28.8984C196.893 28.0286 197.451 27.0729 197.758 26.0312C198.07 24.9896 198.229 23.7578 198.234 22.3359V22.0781H200.172ZM199.422 23.6797H193.594V22.0781H199.422V23.6797ZM193.086 27.5938L192.844 25.8906L198.273 25.5703V27.1094L193.086 27.5938ZM203.977 34.9141H201.977V20.7031H203.977V34.9141ZM205.984 27.8125H203.461V26.1719H205.984V27.8125ZM214 22.0781C214 23.6927 213.828 25.125 213.484 26.375C213.141 27.625 212.5 28.7943 211.562 29.8828C210.63 30.9661 209.312 31.9349 207.609 32.7891L206.523 31.2812C207.977 30.5625 209.107 29.7682 209.914 28.8984C210.721 28.0286 211.279 27.0729 211.586 26.0312C211.898 24.9896 212.057 23.7578 212.062 22.3359V22.0781H214ZM213.25 23.6797H207.422V22.0781H213.25V23.6797ZM206.914 27.5938L206.672 25.8906L212.102 25.5703V27.1094L206.914 27.5938ZM217.805 34.9141H215.805V20.7031H217.805V34.9141ZM219.812 27.8125H217.289V26.1719H219.812V27.8125ZM227.875 31.9766H225.914V28.7031H227.875V31.9766ZM226.898 21.4453C227.914 21.4453 228.828 21.6094 229.641 21.9375C230.458 22.2604 231.096 22.7188 231.555 23.3125C232.018 23.901 232.25 24.5781 232.25 25.3438C232.25 26.1302 232.018 26.8203 231.555 27.4141C231.096 28.0078 230.461 28.4688 229.648 28.7969C228.836 29.1198 227.919 29.2786 226.898 29.2734C225.883 29.2786 224.969 29.1198 224.156 28.7969C223.349 28.4688 222.714 28.0078 222.25 27.4141C221.786 26.8203 221.555 26.1302 221.555 25.3438C221.555 24.5781 221.786 23.901 222.25 23.3125C222.714 22.7188 223.349 22.2604 224.156 21.9375C224.969 21.6094 225.883 21.4453 226.898 21.4453ZM226.898 23.0391C226.237 23.0391 225.651 23.1328 225.141 23.3203C224.63 23.5026 224.232 23.7682 223.945 24.1172C223.664 24.4661 223.523 24.875 223.523 25.3438C223.523 25.8333 223.664 26.2552 223.945 26.6094C224.232 26.9583 224.628 27.2266 225.133 27.4141C225.643 27.5964 226.232 27.6875 226.898 27.6875C227.57 27.6875 228.159 27.5964 228.664 27.4141C229.174 27.2266 229.57 26.9583 229.852 26.6094C230.138 26.2552 230.281 25.8333 230.281 25.3438C230.281 24.875 230.138 24.4661 229.852 24.1172C229.57 23.7682 229.174 23.5026 228.664 23.3203C228.154 23.1328 227.565 23.0391 226.898 23.0391ZM233.422 33.2734H220.422V31.6406H233.422V33.2734ZM247.25 33.3594H234.25V31.7266H247.25V33.3594ZM241.703 32.4062H239.742V29.0312H241.703V32.4062ZM245.75 26.3516H237.734V28.7812H235.75V24.7891H243.781V23.2422H235.727V21.6406H245.75V26.3516ZM246.086 29.5703H235.75V27.9531H246.086V29.5703ZM260.227 26.0859H257.305V24.4688H260.227V26.0859ZM260.18 29.625H257.234V28.0156H260.18V29.625ZM264.094 34.9375H262.219V20.7031H264.094V34.9375ZM261.125 34.3125H259.242V21.0391H261.125V34.3125ZM257.961 22.4062C257.956 23.8073 257.786 25.0807 257.453 26.2266C257.12 27.3724 256.568 28.4297 255.797 29.3984C255.031 30.362 254.008 31.2214 252.727 31.9766L251.555 30.5781C252.638 29.9375 253.508 29.2344 254.164 28.4688C254.82 27.6979 255.294 26.8542 255.586 25.9375C255.883 25.0208 256.034 23.9792 256.039 22.8125V22.4062H257.961ZM256.703 24.0078H252.383V22.4062H256.703V24.0078ZM278.578 29.2266H265.609V27.6328H278.578V29.2266ZM273.055 28.3203H271.078V25.7578H273.055V28.3203ZM272.742 21.4219C272.737 22.2969 272.505 23.0938 272.047 23.8125C271.589 24.526 270.927 25.125 270.062 25.6094C269.198 26.0938 268.172 26.4245 266.984 26.6016L266.266 25.0391C267.281 24.9141 268.151 24.6693 268.875 24.3047C269.599 23.9401 270.141 23.5078 270.5 23.0078C270.865 22.5078 271.047 21.9792 271.047 21.4219V20.9531H272.742V21.4219ZM273.078 21.4219C273.078 22 273.258 22.5391 273.617 23.0391C273.982 23.5339 274.523 23.9609 275.242 24.3203C275.966 24.6745 276.846 24.9141 277.883 25.0391L277.109 26.6016C275.927 26.4245 274.904 26.0964 274.039 25.6172C273.174 25.1328 272.513 24.5339 272.055 23.8203C271.596 23.1068 271.37 22.3073 271.375 21.4219V20.9531H273.078V21.4219ZM276.992 34.9375H275.008V31.7812H267.039V30.2344H276.992V34.9375ZM290.648 34.9375H288.68V20.7031H290.648V34.9375ZM292.758 27.9219H290.211V26.2891H292.758V27.9219ZM287.711 24.4375H279.359V22.8359H287.711V24.4375ZM283.57 25.2266C284.253 25.2266 284.87 25.3724 285.422 25.6641C285.979 25.9505 286.414 26.3516 286.727 26.8672C287.044 27.3828 287.206 27.9661 287.211 28.6172C287.206 29.2734 287.044 29.8594 286.727 30.375C286.414 30.8854 285.979 31.2865 285.422 31.5781C284.87 31.8646 284.253 32.0078 283.57 32.0078C282.878 32.0078 282.255 31.8646 281.703 31.5781C281.151 31.2865 280.719 30.8854 280.406 30.375C280.094 29.8594 279.938 29.2734 279.938 28.6172C279.938 27.9661 280.094 27.3828 280.406 26.8672C280.719 26.3516 281.151 25.9505 281.703 25.6641C282.255 25.3724 282.878 25.2266 283.57 25.2266ZM283.57 26.8516C283.237 26.8568 282.94 26.9297 282.68 27.0703C282.419 27.2109 282.214 27.4167 282.062 27.6875C281.917 27.9531 281.844 28.263 281.844 28.6172C281.844 28.9818 281.917 29.2969 282.062 29.5625C282.214 29.8229 282.419 30.0234 282.68 30.1641C282.94 30.3047 283.237 30.3776 283.57 30.3828C283.904 30.3776 284.201 30.3047 284.461 30.1641C284.727 30.0234 284.93 29.8229 285.07 29.5625C285.216 29.2969 285.289 28.9818 285.289 28.6172C285.289 28.263 285.216 27.9531 285.07 27.6875C284.93 27.4167 284.727 27.2109 284.461 27.0703C284.201 26.9297 283.904 26.8568 283.57 26.8516ZM284.562 23.4453H282.578V20.9297H284.562V23.4453ZM305.211 34.9375H303.188V20.7031H305.211V34.9375ZM300.953 22.2031C300.948 23.7292 300.742 25.1146 300.336 26.3594C299.93 27.599 299.24 28.7396 298.266 29.7812C297.292 30.8229 295.987 31.7292 294.352 32.5L293.305 30.9062C294.669 30.2604 295.766 29.5339 296.594 28.7266C297.427 27.9193 298.031 27.013 298.406 26.0078C298.781 25.0026 298.969 23.8516 298.969 22.5547V22.2031H300.953ZM299.883 23.7734H294.062V22.2031H299.883V23.7734Z" fill="black"/>
<path fill-rule="evenodd" clip-rule="evenodd" d="M30 19C24.4771 19 20 22.6341 20 27.117C20 30.0152 21.8717 32.5583 24.6873 33.9943C24.5481 34.4887 23.8485 36.9757 23.6976 37.5981L23.6699 37.7251C23.6699 37.7251 23.65 37.8995 23.7597 37.966C23.8694 38.0325 23.9985 37.9809 23.9985 37.9809L24.0455 37.9663C24.3598 37.8392 25.6592 36.9381 26.7417 36.1698L28.2238 35.1063C28.8003 35.1903 29.3938 35.234 30 35.234C35.5229 35.234 40 31.5999 40 27.117C40 22.6341 35.5229 19 30 19Z" fill="#3C1E1E"/>
<path fill-rule="evenodd" clip-rule="evenodd" d="M30 19C24.4771 19 20 22.6341 20 27.117C20 30.0152 21.8717 32.5583 24.6873 33.9943C24.5481 34.4887 23.8485 36.9757 23.6976 37.5981L23.6699 37.7251C23.6699 37.7251 23.65 37.8995 23.7597 37.966C23.8694 38.0325 23.9985 37.9809 23.9985 37.9809L24.0455 37.9663C24.3598 37.8392 25.6592 36.9381 26.7417 36.1698L28.2238 35.1063C28.8003 35.1903 29.3938 35.234 30 35.234C35.5229 35.234 40 31.5999 40 27.117C40 22.6341 35.5229 19 30 19Z" fill="black"/>
</svg>
