<svg width="20" height="20" viewBox="0 0 20 20" fill="none" xmlns="http://www.w3.org/2000/svg">
<path fill-rule="evenodd" clip-rule="evenodd" d="M10 1C4.47712 1 0 4.63413 0 9.11698C0 12.0152 1.87173 14.5583 4.68731 15.9943C4.54806 16.4887 3.8485 18.9757 3.6976 19.5981L3.6699 19.7251C3.6699 19.7251 3.65 19.8995 3.75971 19.966C3.86942 20.0325 3.99846 19.9809 3.99846 19.9809L4.04555 19.9663C4.35982 19.8392 5.65919 18.9381 6.7417 18.1698L8.22385 17.1063C8.80029 17.1903 9.39385 17.234 10 17.234C15.5229 17.234 20 13.5999 20 9.11698C20 4.63413 15.5229 1 10 1Z" fill="#3C1E1E"/>
<path fill-rule="evenodd" clip-rule="evenodd" d="M10 1C4.47712 1 0 4.63413 0 9.11698C0 12.0152 1.87173 14.5583 4.68731 15.9943C4.54806 16.4887 3.8485 18.9757 3.6976 19.5981L3.6699 19.7251C3.6699 19.7251 3.65 19.8995 3.75971 19.966C3.86942 20.0325 3.99846 19.9809 3.99846 19.9809L4.04555 19.9663C4.35982 19.8392 5.65919 18.9381 6.7417 18.1698L8.22385 17.1063C8.80029 17.1903 9.39385 17.234 10 17.234C15.5229 17.234 20 13.5999 20 9.11698C20 4.63413 15.5229 1 10 1Z" fill="black"/>
</svg>
