<svg width="416" height="80" viewBox="0 0 416 80" fill="none" xmlns="http://www.w3.org/2000/svg">
<g clip-path="url(#clip0_322_611)">
<path d="M6.22146 50.9579L15.1055 68.3141C16.6058 71.2264 19.6063 73.0502 22.8717 73.0502H60.2022C61.0847 73.0502 61.9672 73.2856 62.7321 73.7563L72.3515 79.6691C73.7635 80.5222 75.5874 79.6397 75.7639 77.9923L81.4415 25.1883C81.7062 22.7172 80.9119 20.2462 79.2352 18.3929L64.8207 2.44873L6.19202 50.9579H6.22146Z" fill="black"/>
<path d="M12.8092 5.85404L5.1313 45.5085C4.2782 49.98 7.69062 54.0984 12.2209 54.0984H52.905C56.4351 54.0984 59.4356 51.5391 60.024 48.0678L66.6429 8.41334C67.3783 4.00075 63.9953 0 59.5239 0H19.8988C16.4276 0 13.4564 2.44163 12.8092 5.85404Z" fill="#5DE0DC"/>
<path d="M30.47 22.2474C32.6174 22.2474 34.3531 20.5117 34.3531 18.3643C34.3531 16.2168 32.6174 14.4812 30.47 14.4812C28.3225 14.4812 26.5869 16.2168 26.5869 18.3643C26.5869 20.5117 28.3225 22.2474 30.47 22.2474Z" fill="black"/>
<path d="M42.3944 23.3008C44.5419 23.3008 46.2775 21.5652 46.2775 19.4178C46.2775 17.2703 44.5419 15.5347 42.3944 15.5347C40.2469 15.5347 38.5114 17.2703 38.5114 19.4178C38.5114 21.5652 40.2469 23.3008 42.3944 23.3008Z" fill="black"/>
<path d="M36.883 39.5375C42.031 39.008 45.9141 34.8307 46.2671 29.8592C46.326 28.8296 45.5905 28.0942 44.5903 28.2118L27.0282 30.0357C26.028 30.1534 25.4397 31.0359 25.7338 32.0067C27.087 36.8311 31.7644 40.0964 36.9124 39.5669L36.883 39.5375Z" fill="black"/>
<path fill-rule="evenodd" clip-rule="evenodd" d="M160.9 8C161.208 8 161.459 8.69691 161.459 9.00489V21.646C161.459 21.954 161.21 22.2047 160.9 22.2047H141.833C141.525 22.2047 141.274 22.4535 141.274 22.7634V71.0851C141.274 71.3931 141.026 71.6438 140.716 71.6438H125.741C125.433 71.6438 125.182 71.395 125.182 71.0851V22.7614C125.182 22.4535 124.933 22.2027 124.624 22.2027H105.56C105.252 22.2027 105.001 21.954 105.001 21.644V8.57451C105.001 8.25665 105.258 8 105.576 8H160.9ZM221.566 71.5994C209.929 71.5976 202.902 63.687 202.902 49.5608V27.1847C202.902 26.8728 203.155 26.6221 203.465 26.6221H217.62C217.932 26.6221 218.183 26.8748 218.183 27.1847V40.8307C218.183 48.9212 218.87 58.0916 228.089 58.0916C234.739 58.0916 239.516 52.4827 239.516 40.8307V27.1847C239.516 26.8728 239.769 26.6221 240.079 26.6221H254.143C254.455 26.6221 254.706 26.8748 254.706 27.1847V71.09C254.706 71.4019 254.453 71.6527 254.143 71.6527H240.079C239.767 71.6527 239.516 71.4 239.516 71.09V64.0874C235.769 68.6182 231.335 71.5954 221.566 71.5954V71.5994ZM262.539 27.1717V71.6416H262.541H277.168C277.478 71.6416 277.731 71.3909 277.731 71.0789V54.4064C277.731 46.9615 280.982 40.6045 288.443 40.6045C296.741 40.6045 298.974 46.316 298.974 54.4064V71.0789C298.974 71.3889 299.225 71.6416 299.536 71.6416H313.781C314.091 71.6416 314.343 71.3909 314.343 71.0789V47.767C314.343 33.6393 307.317 25.7285 295.586 25.7285C285.91 25.7285 282.712 28.5951 277.729 35.043V27.1717C277.729 26.8617 277.478 26.609 277.166 26.609H263.102C262.792 26.609 262.539 26.8598 262.539 27.1717ZM380.062 34.3156C380.062 29.2517 382.907 26.5864 387.971 26.5864H413.92C414.228 26.5864 414.479 26.8352 414.479 27.1451V39.4526C414.479 39.7606 414.23 40.0113 413.92 40.0113H395.919C395.611 40.0113 395.36 40.2601 395.36 40.57V71.1017C395.36 71.4097 395.112 71.6605 394.802 71.6605H380.637C380.329 71.6605 380.078 71.4117 380.078 71.1017V34.3196H380.062V34.3156ZM169.671 26.5864C164.607 26.5864 161.762 29.2517 161.762 34.3156V34.3196H161.778V71.1017C161.778 71.4117 162.028 71.6605 162.336 71.6605H176.501C176.811 71.6605 177.06 71.4097 177.06 71.1017V40.57C177.06 40.2601 177.311 40.0113 177.619 40.0113H195.62C195.93 40.0113 196.179 39.7606 196.179 39.4526V27.1451C196.179 26.8352 195.928 26.5864 195.62 26.5864H169.671ZM340.361 48.6922L354.396 26.8787C354.499 26.7188 354.675 26.6221 354.866 26.6221H372.289C372.737 26.6221 373.004 27.1255 372.749 27.4947L357.644 49.5016C357.51 49.6971 357.514 49.9557 357.654 50.1452L372.701 70.7662C372.97 71.1354 372.707 71.6527 372.251 71.6527H354.856C354.673 71.6527 354.499 71.5619 354.396 71.4098L340.397 50.929C339.947 50.2597 339.929 49.3792 340.361 48.6941V48.6922ZM322.735 8.44875H337.98V8.44678C338.29 8.44678 338.539 8.69751 338.539 9.00549V71.0857C338.539 71.3956 338.288 71.6444 337.98 71.6444H322.735C322.425 71.6444 322.176 71.3937 322.176 71.0857V9.00746C322.176 8.69751 322.427 8.44875 322.735 8.44875Z" fill="black"/>
</g>
<defs>
<clipPath id="clip0_322_611">
<rect width="416" height="80" fill="white"/>
</clipPath>
</defs>
</svg>
