<svg width="24" height="24" viewBox="0 0 24 24" fill="none" xmlns="http://www.w3.org/2000/svg">
<path fill-rule="evenodd" clip-rule="evenodd" d="M9.33639 7.09094C9.20639 7.14094 9.0664 7.17094 8.9364 7.17094H8.92639C8.55639 7.17094 8.20639 6.96094 8.03639 6.60094C7.71639 5.92094 7.5364 4.44094 8.8264 3.19094C9.3164 2.73094 9.2364 2.27094 9.2364 2.27094C9.0864 1.74094 9.4064 1.19094 9.9364 1.04094C10.4664 0.890944 11.0164 1.21094 11.1664 1.74094C11.3164 2.32094 11.2964 3.58094 10.2164 4.63094C9.6564 5.17094 9.82639 5.69094 9.86639 5.79094C10.0664 6.29094 9.83639 6.88094 9.33639 7.09094ZM12.7211 7.15932C12.8411 7.15932 12.9611 7.13932 13.0811 7.09932C13.5811 6.91932 13.8411 6.34932 13.6911 5.83932C13.6711 5.75932 13.5711 5.32932 14.2111 4.79932C15.4111 3.78932 15.3611 2.36932 15.1411 1.69932C14.9711 1.17932 14.4211 0.909321 13.9011 1.06932C13.3811 1.22932 13.0811 1.77932 13.2311 2.30932C13.2611 2.40932 13.3711 2.89932 12.9211 3.27932C11.4711 4.49932 11.5511 5.92932 11.8211 6.58932C11.9811 6.96932 12.3311 7.17932 12.7211 7.17932V7.15932ZM10.7931 17.9795H10.2731V17.9895C7.05313 17.9895 4.45312 15.3795 4.45312 12.1695V9.00953C4.45312 8.59953 4.78313 8.26953 5.19313 8.26953H18.0031C19.7231 8.26953 21.1331 9.66953 21.1331 11.3995V11.5095C21.1331 13.2295 19.7331 14.6395 18.0031 14.6395H16.0531C15.1231 16.6095 13.1131 17.9795 10.7931 17.9795ZM16.6131 10.2995V12.1595V12.1695C16.6131 12.3106 16.6043 12.4429 16.5949 12.5829L16.5949 12.5829L16.5931 12.6095H18.0031C18.6131 12.6095 19.1031 12.1095 19.1031 11.5095V11.3995C19.1031 10.7895 18.6031 10.2995 18.0031 10.2995H16.6131ZM2.36812 18.8398H20.7081H20.7181C21.0181 18.8398 21.2581 19.0798 21.2581 19.3798V19.8498C21.2581 21.0398 20.2981 21.9998 19.1081 21.9998H3.97812C2.78812 21.9998 1.82812 21.0398 1.82812 19.8498V19.3798C1.82812 19.0798 2.06812 18.8398 2.36812 18.8398Z" fill="black"/>
</svg>
