<svg width="24" height="24" viewBox="0 0 24 24" fill="none" xmlns="http://www.w3.org/2000/svg">
<path d="M18.0867 15.0949C16.9919 15.0949 16.0054 15.5567 15.29 16.3043L10.8238 13.1599C11.0298 12.6322 11.1491 12.0715 11.1491 11.4668C11.1491 10.939 11.0407 10.4333 10.878 9.94952L16.3631 6.27736C16.851 6.66217 17.458 6.89305 18.1192 6.89305C19.7236 6.89305 21.0244 5.57371 21.0244 3.94653C21.0244 2.31934 19.7236 1 18.1192 1C16.5149 1 15.2141 2.31934 15.2141 3.94653C15.2141 4.08946 15.2358 4.23238 15.2575 4.37531L9.70732 8.09145C8.88347 7.29985 7.78862 6.81609 6.57453 6.81609C4.04878 6.81609 2 8.89405 2 11.4558C2 14.0175 4.04878 16.0954 6.57453 16.0954C7.72358 16.0954 8.76423 15.6447 9.5664 14.941L14.271 18.2394C14.2168 18.4923 14.1951 18.7671 14.1951 19.042C14.1951 21.2299 15.9404 23 18.0976 23C20.2547 23 22 21.2299 22 19.042C22 16.8541 20.2547 15.084 18.0976 15.084L18.0867 15.0949Z" fill="black"/>
</svg>
