<svg width="71" height="75" viewBox="0 0 71 75" fill="none" xmlns="http://www.w3.org/2000/svg">
<path d="M1.35757 47.811L9.57737 63.8695C10.9655 66.5641 13.7417 68.2516 16.7629 68.2516H51.3023C52.1188 68.2516 52.9354 68.4693 53.643 68.9048L62.5433 74.3756C63.8498 75.1649 65.5373 74.3484 65.7006 72.8242L70.9536 23.9681C71.1986 21.6818 70.4637 19.3955 68.9123 17.6808L55.5755 2.92871L1.33032 47.811H1.35757Z" fill="black"/>
<path d="M7.45264 6.07712L0.348779 42.7668C-0.440539 46.9039 2.71674 50.7144 6.90829 50.7144H44.5506C47.8167 50.7144 50.5929 48.3464 51.1373 45.1347L57.2613 8.44507C57.9418 4.36239 54.8117 0.660767 50.6746 0.660767H14.0122C10.8004 0.660767 8.05143 2.91985 7.45264 6.07712Z" fill="#5DE0DC"/>
<path d="M23.7932 21.231C25.7801 21.231 27.386 19.6252 27.386 17.6383C27.386 15.6514 25.7801 14.0455 23.7932 14.0455C21.8063 14.0455 20.2004 15.6514 20.2004 17.6383C20.2004 19.6252 21.8063 21.231 23.7932 21.231Z" fill="black"/>
<path d="M34.8254 22.2348C36.8123 22.2348 38.4182 20.629 38.4182 18.6421C38.4182 16.6552 36.8123 15.0493 34.8254 15.0493C32.8385 15.0493 31.2327 16.6552 31.2327 18.6421C31.2327 20.629 32.8385 22.2348 34.8254 22.2348Z" fill="black"/>
<path d="M29.7261 37.2513C34.4893 36.7614 38.082 32.8964 38.4086 28.2966C38.4631 27.344 37.7826 26.6636 36.8572 26.7724L20.6081 28.4599C19.6827 28.5688 19.1384 29.3853 19.4105 30.2835C20.6626 34.7473 24.9902 37.7684 29.7533 37.2785L29.7261 37.2513Z" fill="black"/>
</svg>
