<svg width="78" height="16" viewBox="0 0 78 16" fill="none" xmlns="http://www.w3.org/2000/svg">
<g clip-path="url(#clip0_375_393)">
<path fill-rule="evenodd" clip-rule="evenodd" d="M13.9752 0C14.0522 0 14.1149 0.174227 14.1149 0.251223V3.4115C14.1149 3.48849 14.0527 3.55118 13.9752 3.55118H9.20838C9.13138 3.55118 9.0687 3.61337 9.0687 3.69085V15.7713C9.0687 15.8483 9.00651 15.9109 8.92902 15.9109H5.18535C5.10836 15.9109 5.04568 15.8488 5.04568 15.7713V3.69036C5.04568 3.61337 4.98349 3.55068 4.906 3.55068H0.140166C0.0631706 3.55068 0.000488281 3.48849 0.000488281 3.41101V0.143626C0.000488281 0.064163 0.0646513 0 0.144115 0H13.9752ZM29.1417 15.8998C26.2323 15.8994 24.4756 13.9217 24.4756 10.3902V4.79618C24.4756 4.7182 24.5388 4.65552 24.6163 4.65552H28.1551C28.2331 4.65552 28.2958 4.71869 28.2958 4.79618V8.20768C28.2958 10.2303 28.4675 12.5229 30.7724 12.5229C32.4348 12.5229 33.6292 11.1207 33.6292 8.20768V4.79618C33.6292 4.7182 33.6924 4.65552 33.7698 4.65552H37.286C37.364 4.65552 37.4266 4.71869 37.4266 4.79618V15.7725C37.4266 15.8505 37.3635 15.9132 37.286 15.9132H33.7698C33.6919 15.9132 33.6292 15.85 33.6292 15.7725V14.0218C32.6924 15.1546 31.5839 15.8989 29.1417 15.8989V15.8998ZM39.3849 4.79292V15.9104H39.3854H43.0422C43.1197 15.9104 43.1828 15.8477 43.1828 15.7697V11.6016C43.1828 9.74039 43.9957 8.15112 45.8609 8.15112C47.9353 8.15112 48.4936 9.57899 48.4936 11.6016V15.7697C48.4936 15.8472 48.5563 15.9104 48.6342 15.9104H52.1953C52.2728 15.9104 52.3359 15.8477 52.3359 15.7697V9.94176C52.3359 6.40983 50.5794 4.43213 47.6466 4.43213C45.2277 4.43213 44.4281 5.14878 43.1824 6.76075V4.79292C43.1824 4.71543 43.1197 4.65226 43.0417 4.65226H39.5256C39.4481 4.65226 39.3849 4.71494 39.3849 4.79292ZM68.7656 6.5789C68.7656 5.31291 69.4768 4.64661 70.7428 4.64661H77.2302C77.3072 4.64661 77.3699 4.7088 77.3699 4.78628V7.86315C77.3699 7.94014 77.3077 8.00283 77.2302 8.00283H72.7299C72.6529 8.00283 72.5902 8.06501 72.5902 8.1425V15.7754C72.5902 15.8524 72.528 15.9151 72.4506 15.9151H68.9093C68.8323 15.9151 68.7696 15.8529 68.7696 15.7754V6.57989H68.7656V6.5789ZM16.1678 4.64661C14.9018 4.64661 14.1906 5.31291 14.1906 6.5789V6.57989H14.1945V15.7754C14.1945 15.8529 14.2572 15.9151 14.3342 15.9151H17.8755C17.953 15.9151 18.0152 15.8524 18.0152 15.7754V8.1425C18.0152 8.06501 18.0778 8.00283 18.1548 8.00283H22.6551C22.7326 8.00283 22.7948 7.94014 22.7948 7.86315V4.78628C22.7948 4.7088 22.7321 4.64661 22.6551 4.64661H16.1678ZM58.8405 10.173L62.3492 4.71968C62.3748 4.6797 62.4188 4.65552 62.4667 4.65552H66.8223C66.9344 4.65552 67.001 4.78138 66.9373 4.87367L63.1611 10.3754C63.1275 10.4243 63.1285 10.4889 63.1636 10.5363L66.9255 15.6916C66.9926 15.7839 66.927 15.9132 66.813 15.9132H62.4642C62.4183 15.9132 62.3748 15.8905 62.3492 15.8525L58.8493 10.7323C58.7368 10.5649 58.7324 10.3448 58.8405 10.1735V10.173ZM54.4339 0.112188H58.2451V0.111694C58.3226 0.111694 58.3848 0.174377 58.3848 0.251372V15.7714C58.3848 15.8489 58.3221 15.9111 58.2451 15.9111H54.4339C54.3564 15.9111 54.2942 15.8484 54.2942 15.7714V0.251866C54.2942 0.174377 54.3569 0.112188 54.4339 0.112188Z" fill="black"/>
</g>
<defs>
<clipPath id="clip0_375_393">
<rect width="78" height="16" fill="white"/>
</clipPath>
</defs>
</svg>
