<svg width="94" height="98" viewBox="0 0 94 98" fill="none" xmlns="http://www.w3.org/2000/svg">
<path d="M1.65101 62.0031L12.446 83.0927C14.269 86.6314 17.915 88.8476 21.8827 88.8476H67.2432C68.3155 88.8476 69.3879 89.1336 70.3173 89.7055L82.0059 96.8902C83.7217 97.9268 85.9379 96.8545 86.1523 94.8528L93.0511 30.6904C93.3728 27.6878 92.4077 24.6852 90.3702 22.4333L72.8552 3.05945L1.61523 62.0031H1.65101Z" fill="black"/>
<path d="M9.65551 7.19664L0.326048 55.381C-0.710559 60.8142 3.43588 65.8185 8.94062 65.8185H58.376C62.6655 65.8185 66.3114 62.7087 67.0263 58.4908L75.069 10.3065C75.9626 4.9447 71.8519 0.083374 66.4187 0.083374H18.2701C14.0522 0.083374 10.4419 3.05021 9.65551 7.19664Z" fill="#5DE0DC"/>
<path d="M31.1155 27.115C33.7249 27.115 35.8339 25.0061 35.8339 22.3967C35.8339 19.7873 33.7249 17.6783 31.1155 17.6783C28.5061 17.6783 26.3972 19.7873 26.3972 22.3967C26.3972 25.0061 28.5061 27.115 31.1155 27.115Z" fill="black"/>
<path d="M45.6041 28.3967C48.2135 28.3967 50.3224 26.2877 50.3224 23.6783C50.3224 21.0689 48.2135 18.96 45.6041 18.96C42.9947 18.96 40.8857 21.0689 40.8857 23.6783C40.8857 26.2877 42.9947 28.3967 45.6041 28.3967Z" fill="black"/>
<path d="M38.9072 48.1259C45.1626 47.4825 49.8809 42.4067 50.3099 36.3657C50.3814 35.1147 49.4877 34.221 48.2724 34.364L26.9326 36.5802C25.7172 36.7232 25.0023 37.7955 25.3598 38.9751C27.0041 44.8373 32.6875 48.805 38.9429 48.1616L38.9072 48.1259Z" fill="black"/>
</svg>
