<svg width="78" height="16" viewBox="0 0 78 16" fill="none" xmlns="http://www.w3.org/2000/svg">
<path fill-rule="evenodd" clip-rule="evenodd" d="M13.9751 0C14.0521 0 14.1148 0.174227 14.1148 0.251223V3.4115C14.1148 3.48849 14.0526 3.55118 13.9751 3.55118H9.20825C9.13126 3.55118 9.06858 3.61337 9.06858 3.69085V15.7713C9.06858 15.8483 9.00639 15.9109 8.9289 15.9109H5.18523C5.10824 15.9109 5.04555 15.8488 5.04555 15.7713V3.69036C5.04555 3.61337 4.98337 3.55068 4.90588 3.55068H0.140044C0.0630486 3.55068 0.000366211 3.48849 0.000366211 3.41101V0.143626C0.000366211 0.064163 0.0645292 0 0.143993 0H13.9751ZM29.1416 15.8998C26.2321 15.8994 24.4755 13.9217 24.4755 10.3902V4.79618C24.4755 4.7182 24.5386 4.65552 24.6161 4.65552H28.155C28.233 4.65552 28.2956 4.71869 28.2956 4.79618V8.20768C28.2956 10.2303 28.4674 12.5229 30.7723 12.5229C32.4346 12.5229 33.6291 11.1207 33.6291 8.20768V4.79618C33.6291 4.7182 33.6922 4.65552 33.7697 4.65552H37.2859C37.3638 4.65552 37.4265 4.71869 37.4265 4.79618V15.7725C37.4265 15.8505 37.3633 15.9132 37.2859 15.9132H33.7697C33.6917 15.9132 33.6291 15.85 33.6291 15.7725V14.0218C32.6923 15.1546 31.5837 15.8989 29.1416 15.8989V15.8998ZM39.3848 4.79292V15.9104H39.3853H43.0421C43.1195 15.9104 43.1827 15.8477 43.1827 15.7697V11.6016C43.1827 9.74039 43.9956 8.15112 45.8608 8.15112C47.9352 8.15112 48.4934 9.57899 48.4934 11.6016V15.7697C48.4934 15.8472 48.5561 15.9104 48.6341 15.9104H52.1952C52.2726 15.9104 52.3358 15.8477 52.3358 15.7697V9.94176C52.3358 6.40983 50.5792 4.43213 47.6465 4.43213C45.2276 4.43213 44.428 5.14878 43.1822 6.76075V4.79292C43.1822 4.71543 43.1195 4.65226 43.0416 4.65226H39.5254C39.4479 4.65226 39.3848 4.71494 39.3848 4.79292ZM68.7655 6.5789C68.7655 5.31291 69.4767 4.64661 70.7427 4.64661H77.2301C77.3071 4.64661 77.3698 4.7088 77.3698 4.78628V7.86315C77.3698 7.94014 77.3076 8.00283 77.2301 8.00283H72.7298C72.6528 8.00283 72.5901 8.06501 72.5901 8.1425V15.7754C72.5901 15.8524 72.5279 15.9151 72.4504 15.9151H68.9091C68.8321 15.9151 68.7694 15.8529 68.7694 15.7754V6.57989H68.7655V6.5789ZM16.1676 4.64661C14.9017 4.64661 14.1904 5.31291 14.1904 6.5789V6.57989H14.1944V15.7754C14.1944 15.8529 14.2571 15.9151 14.3341 15.9151H17.8754C17.9529 15.9151 18.015 15.8524 18.015 15.7754V8.1425C18.015 8.06501 18.0777 8.00283 18.1547 8.00283H22.655C22.7325 8.00283 22.7947 7.94014 22.7947 7.86315V4.78628C22.7947 4.7088 22.732 4.64661 22.655 4.64661H16.1676ZM58.8403 10.173L62.3491 4.71968C62.3747 4.6797 62.4187 4.65552 62.4665 4.65552H66.8222C66.9342 4.65552 67.0009 4.78138 66.9372 4.87367L63.161 10.3754C63.1274 10.4243 63.1284 10.4889 63.1634 10.5363L66.9254 15.6916C66.9925 15.7839 66.9268 15.9132 66.8128 15.9132H62.4641C62.4182 15.9132 62.3747 15.8905 62.3491 15.8525L58.8492 10.7323C58.7367 10.5649 58.7322 10.3448 58.8403 10.1735V10.173ZM54.4337 0.112188H58.245V0.111694C58.3225 0.111694 58.3847 0.174377 58.3847 0.251372V15.7714C58.3847 15.8489 58.322 15.9111 58.245 15.9111H54.4337C54.3563 15.9111 54.2941 15.8484 54.2941 15.7714V0.251866C54.2941 0.174377 54.3567 0.112188 54.4337 0.112188Z" fill="black"/>
</svg>
