<svg width="400" height="200" viewBox="0 0 400 200" fill="none" xmlns="http://www.w3.org/2000/svg">
<g clip-path="url(#clip0_526_1881)">
<rect width="400" height="200" fill="#5F4EE3" rx="10"/>
<path fill-rule="evenodd" clip-rule="evenodd" d="M381.25 74.8047C381.25 81.5597 375.755 87.0547 369 87.0547C362.245 87.0547 356.75 81.5597 356.75 74.8047C356.75 68.0497 362.245 62.5547 369 62.5547C375.755 62.5547 381.25 68.0497 381.25 74.8047ZM387.27 109.805H398.75C401.655 109.805 404 112.15 404 115.055V127.305C404 130.21 401.655 132.555 398.75 132.555H386.5C383.595 132.555 381.25 130.21 381.25 127.305V115.055C381.25 114.6 381.32 114.18 381.425 113.76L369 99.6195L356.575 113.76C356.68 114.18 356.75 114.6 356.75 115.055V127.305C356.75 130.21 354.405 132.555 351.5 132.555H339.25C336.345 132.555 334 130.21 334 127.305V115.055C334 112.15 336.345 109.805 339.25 109.805H350.73L366.375 91.9895C367.04 91.2195 367.985 90.7995 369 90.7995C370.015 90.7995 370.96 91.2195 371.625 91.9895L387.27 109.805Z" fill="#7E6FF4"/>
<path fill-rule="evenodd" clip-rule="evenodd" d="M212.25 74.8047C212.25 81.5597 206.755 87.0547 200 87.0547C193.245 87.0547 187.75 81.5597 187.75 74.8047C187.75 68.0497 193.245 62.5547 200 62.5547C206.755 62.5547 212.25 68.0497 212.25 74.8047ZM218.27 109.805H229.75C232.655 109.805 235 112.15 235 115.055V127.305C235 130.21 232.655 132.555 229.75 132.555H217.5C214.595 132.555 212.25 130.21 212.25 127.305V115.055C212.25 114.6 212.32 114.18 212.425 113.76L200 99.6195L187.575 113.76C187.68 114.18 187.75 114.6 187.75 115.055V127.305C187.75 130.21 185.405 132.555 182.5 132.555H170.25C167.345 132.555 165 130.21 165 127.305V115.055C165 112.15 167.345 109.805 170.25 109.805H181.73L197.375 91.9895C198.04 91.2195 198.985 90.7995 200 90.7995C201.015 90.7995 201.96 91.2195 202.625 91.9895L218.27 109.805Z" fill="#E9E6FC"/>
<path fill-rule="evenodd" clip-rule="evenodd" d="M296.895 74.8047C296.895 81.5597 291.335 87.0547 284.5 87.0547C277.664 87.0547 272.104 81.5597 272.104 74.8047C272.104 68.0497 277.664 62.5547 284.5 62.5547C291.335 62.5547 296.895 68.0497 296.895 74.8047ZM302.987 109.805H314.604C317.543 109.805 319.916 112.15 319.916 115.055V127.305C319.916 130.21 317.543 132.555 314.604 132.555H302.208C299.268 132.555 296.896 130.21 296.896 127.305V115.055C296.896 114.6 296.966 114.18 297.073 113.76L284.5 99.6195L271.927 113.76C272.033 114.18 272.104 114.6 272.104 115.055V127.305C272.104 130.21 269.731 132.555 266.791 132.555H254.396C251.456 132.555 249.083 130.21 249.083 127.305V115.055C249.083 112.15 251.456 109.805 254.396 109.805H266.012L281.843 91.9895C282.516 91.2195 283.473 90.7995 284.5 90.7995C285.527 90.7995 286.483 91.2195 287.156 91.9895L302.987 109.805Z" fill="#7E6FF4"/>
<path fill-rule="evenodd" clip-rule="evenodd" d="M43.8954 74.8047C43.8954 81.5597 38.335 87.0547 31.4996 87.0547C24.6642 87.0547 19.1038 81.5597 19.1038 74.8047C19.1038 68.0497 24.6642 62.5547 31.4996 62.5547C38.335 62.5547 43.8954 68.0497 43.8954 74.8047ZM49.9872 109.805H61.6038C64.5434 109.805 66.9163 112.15 66.9163 115.055V127.305C66.9163 130.21 64.5434 132.555 61.6038 132.555H49.208C46.2684 132.555 43.8955 130.21 43.8955 127.305V115.055C43.8955 114.6 43.9663 114.18 44.0726 113.76L31.4997 99.6195L18.9268 113.76C19.033 114.18 19.1038 114.6 19.1038 115.055V127.305C19.1038 130.21 16.7309 132.555 13.7913 132.555H1.39551C-1.54408 132.555 -3.91699 130.21 -3.91699 127.305V115.055C-3.91699 112.15 -1.54408 109.805 1.39551 109.805H13.0122L28.8434 91.9895C29.5163 91.2195 30.4726 90.7995 31.4997 90.7995C32.5268 90.7995 33.483 91.2195 34.1559 91.9895L49.9872 109.805Z" fill="#7E6FF4"/>
<path fill-rule="evenodd" clip-rule="evenodd" d="M128.25 74.8047C128.25 81.5597 122.755 87.0547 116 87.0547C109.245 87.0547 103.75 81.5597 103.75 74.8047C103.75 68.0497 109.245 62.5547 116 62.5547C122.755 62.5547 128.25 68.0497 128.25 74.8047ZM134.27 109.805H145.75C148.655 109.805 151 112.15 151 115.055V127.305C151 130.21 148.655 132.555 145.75 132.555H133.5C130.595 132.555 128.25 130.21 128.25 127.305V115.055C128.25 114.6 128.32 114.18 128.425 113.76L116 99.6195L103.575 113.76C103.68 114.18 103.75 114.6 103.75 115.055V127.305C103.75 130.21 101.405 132.555 98.5 132.555H86.25C83.345 132.555 81 130.21 81 127.305V115.055C81 112.15 83.345 109.805 86.25 109.805H97.73L113.375 91.9895C114.04 91.2195 114.985 90.7995 116 90.7995C117.015 90.7995 117.96 91.2195 118.625 91.9895L134.27 109.805Z" fill="#7E6FF4"/>
</g>
<defs>
<clipPath id="clip0_526_1881">
<rect width="400" height="200" fill="white"/>
</clipPath>
</defs>
</svg>
