<svg width="400" height="200" viewBox="0 0 400 200" fill="none" xmlns="http://www.w3.org/2000/svg">
<rect width="400" height="200" fill="#FCD8ED" rx="10"/>
<path fill-rule="evenodd" clip-rule="evenodd" d="M186.46 75.0456C185.799 75.2998 185.087 75.4523 184.426 75.4523H184.375C182.494 75.4523 180.715 74.3848 179.851 72.5548C178.224 69.0981 177.31 61.5748 183.867 55.2206C186.358 52.8823 185.951 50.544 185.951 50.544C185.189 47.8498 186.815 45.054 189.51 44.2915C192.204 43.529 195 45.1556 195.762 47.8498C196.525 50.7981 196.423 57.2031 190.933 62.5406C188.086 65.2856 188.95 67.929 189.154 68.4373C190.17 70.979 189.001 73.9781 186.46 75.0456ZM203.666 75.3932C204.276 75.3932 204.886 75.2915 205.496 75.0882C208.038 74.1732 209.36 71.2757 208.597 68.6832C208.496 68.2765 207.987 66.0907 211.241 63.3965C217.341 58.2624 217.086 51.044 215.968 47.6382C215.104 44.9949 212.308 43.6224 209.665 44.4357C207.021 45.249 205.496 48.0449 206.259 50.739C206.411 51.2474 206.971 53.7382 204.683 55.6699C197.312 61.8715 197.719 69.1407 199.092 72.4957C199.905 74.4274 201.684 75.4949 203.666 75.4949V75.3932ZM193.865 130.396H191.222V130.447C174.854 130.447 161.637 117.179 161.637 100.862V84.7984C161.637 82.7143 163.314 81.0368 165.399 81.0368H230.516C239.259 81.0368 246.427 88.1534 246.427 96.9476V97.5068C246.427 106.25 239.31 113.418 230.516 113.418H220.604C215.876 123.432 205.659 130.396 193.865 130.396ZM223.45 91.3559V100.811V100.862C223.45 101.579 223.405 102.251 223.358 102.963L223.358 102.963L223.349 103.098H230.516C233.617 103.098 236.108 100.557 236.108 97.5068V96.9476C236.108 93.8468 233.566 91.3559 230.516 91.3559H223.45ZM151.039 134.769H244.267H244.318C245.843 134.769 247.063 135.989 247.063 137.514V139.903C247.063 145.953 242.183 150.833 236.134 150.833H159.223C153.174 150.833 148.294 145.953 148.294 139.903V137.514C148.294 135.989 149.514 134.769 151.039 134.769Z" fill="#E663B3"/>
</svg>
