<svg width="400" height="200" viewBox="0 0 400 200" fill="none" xmlns="http://www.w3.org/2000/svg">
<rect width="400" height="200" fill="#BAF2F1" rx="10"/>
<path d="M230.261 58.7363H170.761C163.706 58.7363 158.011 64.4313 158.011 71.4863V130.986C158.011 138.041 163.706 143.736 170.761 143.736H208.374C211.816 143.736 215.131 142.334 217.554 139.869L239.441 117.259C241.736 114.879 243.011 111.691 243.011 108.376V71.4863C243.011 64.4313 237.316 58.7363 230.261 58.7363ZM232.131 107.229L206.929 133.026C205.356 134.641 202.636 133.536 202.636 131.284V111.436C202.636 106.761 206.419 102.979 211.094 102.979H230.346C232.556 102.979 233.704 105.656 232.131 107.229Z" fill="#27CDC8"/>
<path d="M120.538 125.343C119.44 125.343 118.342 124.912 117.503 124.073L98.1308 104.722C96.4519 103.043 96.4519 100.31 98.1308 98.631L117.503 79.2592C119.181 77.5803 121.915 77.5803 123.594 79.2592C125.273 80.9381 125.273 83.6716 123.594 85.3505L107.257 101.687L123.594 118.024C125.273 119.703 125.273 122.437 123.594 124.116C122.755 124.955 121.657 125.386 120.559 125.386L120.538 125.343Z" fill="#27CDC7"/>
<path d="M81.1222 127.906C80.0217 127.906 78.9212 127.443 78.0797 126.541L58.6593 105.734C56.9762 103.928 56.9762 100.989 58.6593 99.1839L78.0797 78.3539C79.7628 76.5487 82.5032 76.5487 84.1863 78.3539C85.8694 80.1592 85.8694 83.0985 84.1863 84.9038L67.8085 102.47L84.1863 120.037C85.8694 121.842 85.8694 124.782 84.1863 126.587C83.3448 127.489 82.2443 127.952 81.1438 127.952L81.1222 127.906Z" fill="#27CDC7"/>
<path d="M312.211 127.952C311.11 127.952 310.01 127.489 309.168 126.587C307.485 124.782 307.485 121.842 309.168 120.037L325.546 102.47L309.168 84.9038C307.485 83.0985 307.485 80.1592 309.168 78.3539C310.851 76.5487 313.592 76.5487 315.275 78.3539L334.695 99.1839C336.378 100.989 336.378 103.928 334.695 105.734L315.275 126.564C314.433 127.466 313.333 127.929 312.232 127.929L312.211 127.952Z" fill="#27CDC7"/>
<path d="M276.902 128.722C276.557 128.722 276.19 128.676 275.823 128.583C273.515 127.958 272.112 125.436 272.716 122.959L283.333 78.4757C283.915 75.9993 286.289 74.518 288.576 75.1429C290.885 75.7678 292.288 78.2906 291.683 80.767L281.067 125.204C280.571 127.287 278.823 128.676 276.881 128.676L276.902 128.722Z" fill="#27CDC7"/>
</svg>
