<svg width="400" height="200" viewBox="0 0 400 200" fill="none" xmlns="http://www.w3.org/2000/svg">
<rect width="400" height="200" fill="#5DE0DC" rx="10"/>
<path d="M243.311 56.6927C234.811 48.1858 217.901 50.8414 200.047 61.9139C182.193 50.8414 165.283 48.1858 156.783 56.6927C150.801 62.679 150.037 72.8963 154.714 85.4992C156.468 90.2252 158.942 95.0863 161.955 99.9924C158.942 104.854 156.468 109.76 154.714 114.486C150.037 127.044 150.756 137.306 156.783 143.292C160.201 146.713 164.968 148.333 170.635 148.333C179.045 148.333 189.388 144.688 200.047 138.071C210.706 144.688 221.05 148.333 229.46 148.333C235.126 148.333 239.893 146.713 243.311 143.292C251.811 134.785 249.158 117.861 238.094 99.9924C249.158 82.1234 251.811 65.1996 243.311 56.6927ZM200.047 113.495C192.582 113.495 186.555 107.464 186.555 99.9924C186.555 92.5208 192.582 86.4894 200.047 86.4894C207.513 86.4894 213.539 92.5208 213.539 99.9924C213.539 107.464 207.513 113.495 200.047 113.495Z" fill="white"/>
</svg>
