<svg width="400" height="200" viewBox="0 0 400 200" fill="none" xmlns="http://www.w3.org/2000/svg">
<rect width="400" height="200" fill="#E663B3"/>
<path fill-rule="evenodd" clip-rule="evenodd" d="M167.462 52.5H232.537H232.585C240.85 52.5 247.548 58.865 247.548 66.75V109.452C247.548 117.338 240.85 123.702 232.585 123.702H167.462C159.198 123.702 152.5 117.338 152.5 109.452V66.75C152.5 58.865 159.198 52.5 167.462 52.5ZM206.365 72.5925C206.365 69.1725 203.61 66.4175 200.19 66.4175C196.77 66.4175 194.015 69.1725 194.015 72.5925C194.015 76.0125 196.77 78.7675 200.19 78.7675C203.61 78.7675 206.365 76.0125 206.365 72.5925ZM218.478 107.173C220.188 107.173 221.518 105.795 221.518 104.132V104.085V98.0525C221.518 96.3425 220.14 95.0125 218.478 95.0125H213.015L201.805 84.4675C200.855 83.6125 199.43 83.6125 198.527 84.4675L187.318 95.06H187.175H181.19C179.48 95.06 178.15 96.4375 178.15 98.1V104.132C178.15 105.842 179.528 107.173 181.19 107.173H187.175C188.885 107.173 190.215 105.795 190.215 104.132V98.955L200.19 89.55L209.452 98.29V104.132C209.452 105.842 210.83 107.173 212.493 107.173H218.478ZM159.672 132.775H240.327C244.27 132.775 247.5 135.863 247.5 139.615V140.66C247.5 144.46 244.27 147.5 240.327 147.5H159.672C155.73 147.5 152.5 144.413 152.5 140.66V139.615C152.5 135.815 155.73 132.775 159.672 132.775Z" fill="#FCD8ED"/>
</svg>
