<svg width="400" height="200" viewBox="0 0 400 200" fill="none" xmlns="http://www.w3.org/2000/svg">
<rect width="400" height="200" fill="#00AA6C"/>
<path fill-rule="evenodd" clip-rule="evenodd" d="M173.546 53.8168H227.429C235.487 53.8168 241.991 60.3311 241.991 68.401V75.7903C241.991 77.1515 240.875 78.2696 239.516 78.2696H161.41C160.051 78.2696 158.935 77.1515 158.935 75.7903V68.401C158.935 60.3311 165.439 53.8168 173.497 53.8168H173.546ZM227.453 146.183H173.57C165.512 146.183 159.007 139.669 159.007 131.599V124.21C159.007 122.849 160.124 121.73 161.483 121.73H239.589C240.948 121.73 242.064 122.849 242.064 124.21V131.599C242.064 139.669 235.56 146.183 227.501 146.183H227.453ZM161.482 87.7896H239.539C240.907 87.7896 242.015 88.8996 242.015 90.2689V109.714C242.015 111.084 240.907 112.194 239.539 112.194H161.482C160.115 112.194 159.007 111.084 159.007 109.714V90.2689C159.007 88.8996 160.115 87.7896 161.482 87.7896Z" fill="#A8F3D3"/>
<rect x="44.3164" y="40" width="24.7328" height="24.7328" rx="6.41221" fill="#0FD28A"/>
<rect x="284.316" y="40" width="24.7328" height="24.7328" rx="6.41221" fill="#0FD28A"/>
<rect x="91.9502" y="40" width="24.7328" height="24.7328" rx="6.41221" fill="#0FD28A"/>
<rect x="331.95" y="40" width="24.7328" height="24.7328" rx="6.41221" fill="#0FD28A"/>
<rect x="44.3169" y="87.6336" width="24.7328" height="24.7328" rx="6.41221" fill="#0FD28A"/>
<rect x="284.316" y="87.6336" width="24.7328" height="24.7328" rx="6.41221" fill="#0FD28A"/>
<rect x="91.9502" y="87.6336" width="24.7328" height="24.7328" rx="6.41221" fill="#0FD28A"/>
<rect x="331.95" y="87.6336" width="24.7328" height="24.7328" rx="6.41221" fill="#0FD28A"/>
<rect x="44.3169" y="135.267" width="24.7328" height="24.7328" rx="6.41221" fill="#0FD28A"/>
<rect x="284.316" y="135.267" width="24.7328" height="24.7328" rx="6.41221" fill="#0FD28A"/>
<rect x="91.9502" y="135.267" width="24.7328" height="24.7328" rx="6.41221" fill="#0FD28A"/>
<rect x="331.95" y="135.267" width="24.7328" height="24.7328" rx="6.41221" fill="#0FD28A"/>
</svg>
