<svg width="400" height="200" viewBox="0 0 400 200" fill="none" xmlns="http://www.w3.org/2000/svg">
<rect width="400" height="200" fill="#BAF2F1" rx="10"/>
<path d="M198.57 43.1699C167.664 43.1699 142.654 68.1799 142.654 99.0866C142.654 129.993 167.664 155.003 198.57 155.003C229.477 155.003 254.487 129.993 254.487 99.0866C254.487 68.1799 229.477 43.1699 198.57 43.1699ZM198.57 123.232C185.252 123.232 174.425 112.405 174.425 99.0866C174.425 85.7683 185.252 74.9408 198.57 74.9408C204.01 74.9408 209.347 76.8216 213.566 80.1766C215.193 81.4982 215.498 83.8874 214.176 85.5141C212.855 87.1408 210.465 87.4458 208.839 86.1241C205.89 83.7858 202.332 82.5658 198.57 82.5658C189.471 82.5658 182.05 89.9874 182.05 99.0866C182.05 108.186 189.471 115.607 198.57 115.607C206.348 115.607 212.905 110.168 214.634 102.899H199.943C197.859 102.899 196.13 101.171 196.13 99.0866C196.13 97.0024 197.859 95.2741 199.943 95.2741H218.853C220.937 95.2741 222.665 97.0024 222.665 99.0866C222.665 112.405 211.838 123.232 198.52 123.232H198.57Z" fill="#27CDC7"/>
</svg>
