<svg width="400" height="200" viewBox="0 0 400 200" fill="none" xmlns="http://www.w3.org/2000/svg">
<g clip-path="url(#clip0_526_2135)">
<rect width="400" height="200" fill="#0FD28A"/>
<path d="M197.947 121.326C190.941 121.326 184.628 124.281 180.049 129.065L151.468 108.942C152.786 105.565 153.549 101.977 153.549 98.1071C153.549 94.7299 152.856 91.4933 151.815 88.3975L186.917 64.8975C190.039 67.3601 193.923 68.8376 198.155 68.8376C208.422 68.8376 216.747 60.3945 216.747 49.9813C216.747 39.5681 208.422 31.125 198.155 31.125C187.888 31.125 179.564 39.5681 179.564 49.9813C179.564 50.896 179.702 51.8106 179.841 52.7253L144.323 76.5068C139.051 71.4409 132.044 68.3451 124.275 68.3451C108.111 68.3451 95 81.643 95 98.0368C95 114.43 108.111 127.728 124.275 127.728C131.628 127.728 138.288 124.844 143.421 120.341L173.528 141.448C173.181 143.067 173.043 144.826 173.043 146.585C173.043 160.586 184.211 171.914 198.016 171.914C211.821 171.914 222.99 160.586 222.99 146.585C222.99 132.583 211.821 121.255 198.016 121.255L197.947 121.326Z" fill="#F4FFFE"/>
<path d="M307.353 57.312C302.823 57.312 298.742 59.2224 295.783 62.3154L277.306 49.3067C278.158 47.1234 278.651 44.8036 278.651 42.3019C278.651 40.1186 278.203 38.0263 277.53 36.025L300.222 20.8329C302.24 22.4249 304.752 23.3801 307.487 23.3801C314.125 23.3801 319.506 17.9219 319.506 11.19C319.506 4.45823 314.125 -1 307.487 -1C300.85 -1 295.469 4.45823 295.469 11.19C295.469 11.7813 295.558 12.3727 295.648 12.964L272.687 28.338C269.278 25.063 264.749 23.0617 259.726 23.0617C249.277 23.0617 240.801 31.6584 240.801 42.2565C240.801 52.8545 249.277 61.4512 259.726 61.4512C264.48 61.4512 268.785 59.5863 272.104 56.6753L291.567 70.3208C291.343 71.367 291.253 72.5041 291.253 73.6412C291.253 82.6928 298.473 90.0159 307.398 90.0159C316.322 90.0159 323.543 82.6928 323.543 73.6412C323.543 64.5897 316.322 57.2666 307.398 57.2666L307.353 57.312Z" fill="#A8F3D3"/>
<path d="M399.78 116.742C395.25 116.742 391.169 118.652 388.209 121.745L369.733 108.736C370.585 106.553 371.078 104.233 371.078 101.732C371.078 99.5483 370.63 97.456 369.957 95.4547L392.649 80.2626C394.667 81.8546 397.179 82.8098 399.914 82.8098C406.552 82.8098 411.933 77.3515 411.933 70.6197C411.933 63.8879 406.552 58.4297 399.914 58.4297C393.277 58.4297 387.895 63.8879 387.895 70.6197C387.895 71.211 387.985 71.8023 388.075 72.3936L365.113 87.7677C361.705 84.4927 357.176 82.4914 352.153 82.4914C341.704 82.4914 333.228 91.0881 333.228 101.686C333.228 112.284 341.704 120.881 352.153 120.881C356.906 120.881 361.212 119.016 364.53 116.105L383.994 129.751C383.77 130.797 383.68 131.934 383.68 133.071C383.68 142.122 390.9 149.446 399.825 149.446C408.749 149.446 415.969 142.122 415.969 133.071C415.969 124.019 408.749 116.696 399.825 116.696L399.78 116.742Z" fill="#A8F3D3"/>
<path d="M307.353 169.203C302.823 169.203 298.742 171.113 295.783 174.206L277.306 161.197C278.158 159.014 278.651 156.694 278.651 154.193C278.651 152.009 278.203 149.917 277.53 147.916L300.222 132.724C302.24 134.316 304.752 135.271 307.487 135.271C314.125 135.271 319.506 129.812 319.506 123.081C319.506 116.349 314.125 110.891 307.487 110.891C300.85 110.891 295.469 116.349 295.469 123.081C295.469 123.672 295.558 124.263 295.648 124.855L272.687 140.229C269.278 136.954 264.749 134.952 259.726 134.952C249.277 134.952 240.801 143.549 240.801 154.147C240.801 164.745 249.277 173.342 259.726 173.342C264.48 173.342 268.785 171.477 272.104 168.566L291.567 182.211C291.343 183.258 291.253 184.395 291.253 185.532C291.253 194.583 298.473 201.907 307.398 201.907C316.322 201.907 323.543 194.583 323.543 185.532C323.543 176.48 316.322 169.157 307.398 169.157L307.353 169.203Z" fill="#A8F3D3"/>
<path d="M4.8856 126.102C10.7289 126.102 15.9937 123.637 19.8122 119.647L43.6484 136.429C42.5491 139.246 41.9127 142.239 41.9127 145.466C41.9127 148.282 42.4912 150.982 43.3591 153.564L14.0845 173.162C11.481 171.109 8.24118 169.876 4.71204 169.876C-3.85048 169.876 -10.793 176.918 -10.793 185.602C-10.793 194.287 -3.85048 201.328 4.71204 201.328C13.2746 201.328 20.2171 194.287 20.2171 185.602C20.2171 184.839 20.1014 184.077 19.9857 183.314L49.6074 163.48C54.0044 167.705 59.8477 170.287 66.3274 170.287C79.8076 170.287 90.7422 159.197 90.7422 145.525C90.7422 131.852 79.8076 120.762 66.3274 120.762C60.1948 120.762 54.6408 123.168 50.3595 126.923L25.2505 109.32C25.5398 107.97 25.6555 106.503 25.6555 105.036C25.6555 93.359 16.3409 83.9117 4.82778 83.9117C-6.68533 83.9117 -16 93.359 -16 105.036C-16 116.713 -6.68533 126.16 4.82777 126.16L4.8856 126.102Z" fill="#A8F3D3"/>
</g>
<defs>
<clipPath id="clip0_526_2135">
<rect width="400" height="200" fill="white"/>
</clipPath>
</defs>
</svg>
