<svg width="400" height="200" viewBox="0 0 400 200" fill="none" xmlns="http://www.w3.org/2000/svg">
<rect width="400" height="200" fill="#24A1A4"/>
<path fill-rule="evenodd" clip-rule="evenodd" d="M166.451 54.3912H229.212C237.183 54.3912 243.618 60.5265 243.618 68.127V109.289C243.618 116.889 237.183 123.025 229.212 123.025H166.451C158.48 123.025 152.045 116.889 152.045 109.289V68.127C152.045 60.5265 158.48 54.3912 166.451 54.3912ZM221.529 105.534C222.873 105.534 223.93 104.481 223.93 103.245V74.2166C223.93 72.9346 222.825 71.9273 221.529 71.9273H174.134C172.79 71.9273 171.733 72.9804 171.733 74.2166V103.245C171.733 104.527 172.838 105.534 174.134 105.534H221.529ZM158.96 131.763H236.703C240.522 131.763 243.618 134.714 243.618 138.356V139.363C243.618 143.004 240.522 145.956 236.703 145.956H158.96C155.141 145.956 152.045 143.004 152.045 139.363V138.356C152.045 134.714 155.141 131.763 158.96 131.763Z" fill="#F4FFFE"/>
</svg>
