<svg width="400" height="200" viewBox="0 0 400 200" fill="none" xmlns="http://www.w3.org/2000/svg">
<rect width="400" height="200" fill="#0FD28A"/>
<path d="M199.758 42.2383C168.344 42.2383 142.924 67.6583 142.924 99.0716C142.924 130.485 168.344 155.905 199.758 155.905C231.171 155.905 256.591 130.485 256.591 99.0716C256.591 67.6583 231.171 42.2383 199.758 42.2383ZM175.681 128.987C172.633 128.987 170.204 126.507 170.204 123.51C170.204 120.513 172.684 118.033 175.681 118.033C178.678 118.033 181.158 120.513 181.158 123.51C181.158 126.507 178.678 128.987 175.681 128.987ZM216.653 119.583C212.571 122.632 207.301 124.543 201.566 124.543C196.813 124.543 192.421 123.303 188.753 121.133C188.081 120.772 188.443 119.738 189.166 119.79C194.488 120.048 206.061 119.377 213.191 109.973C216.601 105.53 217.996 101.913 218.616 99.6399C218.771 98.9683 217.944 98.5033 217.479 99.02C214.173 102.895 206.991 108.165 196.658 107.907C188.804 107.7 185.291 111.627 183.793 114.52C183.379 115.347 182.191 115.45 181.674 114.675C179.401 111.472 178.109 107.648 178.109 103.567C178.109 92.5616 187.616 83.52 199.654 82.6933C216.394 81.4016 223.369 74.9433 225.953 71.4816C226.573 70.6549 227.864 70.8616 228.174 71.8433C238.869 105.633 216.704 119.635 216.704 119.635L216.653 119.583Z" fill="white"/>
</svg>
