<svg width="156" height="32" viewBox="0 0 156 32" fill="none" xmlns="http://www.w3.org/2000/svg">
<path fill-rule="evenodd" clip-rule="evenodd" d="M27.9501 0C28.1041 0 28.2295 0.348455 28.2295 0.502446V6.823C28.2295 6.97699 28.1051 7.10235 27.9501 7.10235H18.4165C18.2625 7.10235 18.1372 7.22673 18.1372 7.38171V31.5425C18.1372 31.6965 18.0128 31.8219 17.8578 31.8219H10.3705C10.2165 31.8219 10.0911 31.6975 10.0911 31.5425V7.38072C10.0911 7.22673 9.96673 7.10137 9.81175 7.10137H0.280088C0.126097 7.10137 0.000732422 6.97699 0.000732422 6.82201V0.287253C0.000732422 0.128326 0.129058 0 0.287985 0H27.9501ZM58.2832 31.7997C52.4643 31.7988 48.9509 27.8435 48.9509 20.7804V9.59237C48.9509 9.4364 49.0773 9.31104 49.2323 9.31104H56.3099C56.4659 9.31104 56.5913 9.43739 56.5913 9.59237V16.4154C56.5913 20.4606 56.9348 25.0458 61.5446 25.0458C64.8693 25.0458 67.2581 22.2414 67.2581 16.4154V9.59237C67.2581 9.4364 67.3845 9.31104 67.5394 9.31104H74.5717C74.7277 9.31104 74.8531 9.43739 74.8531 9.59237V31.545C74.8531 31.701 74.7267 31.8263 74.5717 31.8263H67.5394C67.3835 31.8263 67.2581 31.7 67.2581 31.545V28.0437C65.3846 30.3091 63.1675 31.7977 58.2832 31.7977V31.7997ZM78.7695 9.58584V31.8208H78.7705H86.0841C86.2391 31.8208 86.3654 31.6954 86.3654 31.5395V23.2032C86.3654 19.4808 87.9912 16.3022 91.7216 16.3022C95.8705 16.3022 96.9869 19.158 96.9869 23.2032V31.5395C96.9869 31.6945 97.1123 31.8208 97.2682 31.8208H104.39C104.545 31.8208 104.672 31.6954 104.672 31.5395V19.8835C104.672 12.8197 101.158 8.86426 95.293 8.86426C90.4551 8.86426 88.856 10.2976 86.3645 13.5215V9.58584C86.3645 9.43087 86.2391 9.30451 86.0831 9.30451H79.0509C78.8959 9.30451 78.7695 9.42988 78.7695 9.58584ZM137.531 13.1578C137.531 10.6258 138.953 9.29321 141.485 9.29321H154.46C154.614 9.29321 154.74 9.41759 154.74 9.57257V15.7263C154.74 15.8803 154.615 16.0057 154.46 16.0057H145.46C145.306 16.0057 145.18 16.13 145.18 16.285V31.5509C145.18 31.7049 145.056 31.8302 144.901 31.8302H137.818C137.664 31.8302 137.539 31.7058 137.539 31.5509V13.1598H137.531V13.1578ZM32.3353 9.29321C29.8033 9.29321 28.3809 10.6258 28.3809 13.1578V13.1598H28.3888V31.5509C28.3888 31.7058 28.5141 31.8302 28.6681 31.8302H35.7507C35.9057 31.8302 36.0301 31.7049 36.0301 31.5509V16.285C36.0301 16.13 36.1554 16.0057 36.3094 16.0057H45.31C45.465 16.0057 45.5894 15.8803 45.5894 15.7263V9.57257C45.5894 9.41759 45.464 9.29321 45.31 9.29321H32.3353ZM117.681 20.3461L124.698 9.43936C124.749 9.3594 124.837 9.31104 124.933 9.31104H133.644C133.868 9.31104 134.002 9.56275 133.874 9.74734L126.322 20.7508C126.255 20.8485 126.257 20.9778 126.327 21.0726L133.851 31.3831C133.985 31.5677 133.854 31.8263 133.626 31.8263H124.928C124.836 31.8263 124.749 31.7809 124.698 31.7049L117.698 21.4645C117.473 21.1299 117.464 20.6896 117.681 20.3471V20.3461ZM108.867 0.224376H116.49V0.223389C116.645 0.223389 116.769 0.348753 116.769 0.502745V31.5428C116.769 31.6978 116.644 31.8222 116.49 31.8222H108.867C108.713 31.8222 108.588 31.6968 108.588 31.5428V0.503732C108.588 0.348753 108.713 0.224376 108.867 0.224376Z" fill="black"/>
</svg>
