<svg width="24" height="24" viewBox="0 0 24 24" fill="none" xmlns="http://www.w3.org/2000/svg">
<path fill-rule="evenodd" clip-rule="evenodd" d="M5.15 2H18.85H18.86C20.6 2 22.01 3.34 22.01 5V13.99C22.01 15.65 20.6 16.99 18.86 16.99H5.15C3.41 16.99 2 15.65 2 13.99V5C2 3.34 3.41 2 5.15 2ZM13.34 6.23C13.34 5.51 12.76 4.93 12.04 4.93C11.32 4.93 10.74 5.51 10.74 6.23C10.74 6.95 11.32 7.53 12.04 7.53C12.76 7.53 13.34 6.95 13.34 6.23ZM15.89 13.51C16.25 13.51 16.53 13.22 16.53 12.87V12.86V11.59C16.53 11.23 16.24 10.95 15.89 10.95H14.74L12.38 8.73C12.18 8.55 11.88 8.55 11.69 8.73L9.33 10.96H9.3H8.04C7.68 10.96 7.4 11.25 7.4 11.6V12.87C7.4 13.23 7.69 13.51 8.04 13.51H9.3C9.66 13.51 9.94 13.22 9.94 12.87V11.78L12.04 9.8L13.99 11.64V12.87C13.99 13.23 14.28 13.51 14.63 13.51H15.89ZM3.51 18.9H20.49C21.32 18.9 22 19.55 22 20.34V20.56C22 21.36 21.32 22 20.49 22H3.51C2.68 22 2 21.35 2 20.56V20.34C2 19.54 2.68 18.9 3.51 18.9Z" fill="#777777"/>
</svg>
