<svg width="24" height="24" viewBox="0 0 24 24" fill="none" xmlns="http://www.w3.org/2000/svg">
<path d="M11.7188 0.820312C5.63875 0.820312 0.71875 5.74031 0.71875 11.8203C0.71875 17.9003 5.63875 22.8203 11.7188 22.8203C17.7987 22.8203 22.7188 17.9003 22.7188 11.8203C22.7188 5.74031 17.7987 0.820312 11.7188 0.820312ZM11.7188 16.5703C9.09875 16.5703 6.96875 14.4403 6.96875 11.8203C6.96875 9.20031 9.09875 7.07031 11.7188 7.07031C12.7887 7.07031 13.8388 7.44031 14.6688 8.10031C14.9888 8.36031 15.0488 8.83031 14.7888 9.15031C14.5288 9.47031 14.0587 9.53031 13.7387 9.27031C13.1587 8.81031 12.4587 8.57031 11.7188 8.57031C9.92875 8.57031 8.46875 10.0303 8.46875 11.8203C8.46875 13.6103 9.92875 15.0703 11.7188 15.0703C13.2487 15.0703 14.5388 14.0003 14.8788 12.5703H11.9887C11.5787 12.5703 11.2387 12.2303 11.2387 11.8203C11.2387 11.4103 11.5787 11.0703 11.9887 11.0703H15.7087C16.1187 11.0703 16.4587 11.4103 16.4587 11.8203C16.4587 14.4403 14.3287 16.5703 11.7087 16.5703H11.7188Z" fill="black"/>
</svg>
