<svg width="24" height="24" viewBox="0 0 24 24" fill="none" xmlns="http://www.w3.org/2000/svg">
<path d="M19.4297 1.82031H5.42969C3.76969 1.82031 2.42969 3.16031 2.42969 4.82031V18.8203C2.42969 20.4803 3.76969 21.8203 5.42969 21.8203H14.2797C15.0897 21.8203 15.8697 21.4903 16.4397 20.9103L21.5897 15.5903C22.1297 15.0303 22.4297 14.2803 22.4297 13.5003V4.82031C22.4297 3.16031 21.0897 1.82031 19.4297 1.82031ZM19.8697 13.2303L13.9397 19.3003C13.5697 19.6803 12.9297 19.4203 12.9297 18.8903V14.2203C12.9297 13.1203 13.8197 12.2303 14.9197 12.2303H19.4497C19.9697 12.2303 20.2397 12.8603 19.8697 13.2303Z" fill="#777777"/>
</svg>
