<svg width="24" height="24" viewBox="0 0 24 24" fill="none" xmlns="http://www.w3.org/2000/svg">
<path fill-rule="evenodd" clip-rule="evenodd" d="M12 22C17.5228 22 22 17.5228 22 12C22 6.47715 17.5228 2 12 2C6.47715 2 2 6.47715 2 12C2 17.5228 6.47715 22 12 22ZM16.7074 10.043C17.098 9.65252 17.098 9.01935 16.7074 8.62883C16.3169 8.23831 15.6837 8.23831 15.2932 8.62883L10.667 13.2551L8.20707 10.7955C7.81653 10.405 7.18336 10.405 6.79286 10.7955C6.40235 11.1861 6.40239 11.8192 6.79293 12.2097L9.95992 15.3764C10.3505 15.7669 10.9836 15.7669 11.3741 15.3764L16.7074 10.043Z" fill="black"/>
</svg>
