<svg width="24" height="24" viewBox="0 0 24 24" fill="none" xmlns="http://www.w3.org/2000/svg">
<path fill-rule="evenodd" clip-rule="evenodd" d="M10.99 23H13.23V23.01C14.45 23.01 15.49 22.19 15.75 21.01L16.08 19.53C16.13 19.34 16.26 19.24 16.33 19.2C16.4 19.15 16.55 19.09 16.74 19.15L18.23 19.61C19.39 19.97 20.63 19.49 21.24 18.45L22.36 16.55C22.97 15.52 22.76 14.19 21.87 13.39L20.74 12.37C20.59 12.23 20.57 12.07 20.57 11.99C20.57 11.91 20.6 11.75 20.74 11.62L21.87 10.6C22.76 9.78999 22.97 8.45999 22.36 7.42999L21.25 5.53999C20.64 4.49999 19.4 4.01999 18.24 4.37999L16.75 4.83999C16.57 4.89999 16.42 4.83999 16.34 4.79999C16.26 4.75999 16.13 4.65999 16.09 4.46999L15.76 2.99999C15.5 1.81999 14.45 0.98999 13.23 0.98999H11C9.78002 0.98999 8.73003 1.81999 8.47003 2.99999L8.14003 4.46999C8.09002 4.65999 7.96003 4.75999 7.89003 4.79999C7.82002 4.84999 7.67003 4.90999 7.48003 4.84999L5.99003 4.38999C4.83003 4.02999 3.59003 4.50999 2.98003 5.54999L1.86003 7.44999C1.25003 8.47999 1.46003 9.80999 2.35003 10.61L3.48003 11.63C3.63003 11.76 3.65003 11.92 3.65003 12C3.65003 12.08 3.63003 12.24 3.48003 12.37L2.35003 13.39C1.45003 14.2 1.24003 15.53 1.85003 16.56L2.96003 18.45C3.57003 19.49 4.81003 19.97 5.98003 19.61L7.46003 19.15C7.65003 19.1 7.81003 19.16 7.88003 19.2C7.96003 19.24 8.09003 19.34 8.13003 19.53L8.46003 20.99C8.72003 22.17 9.77002 23 10.99 23ZM8.89003 17.46C8.50003 17.23 8.06003 17.12 7.62003 17.12L7.61003 17.14C7.35003 17.14 7.10003 17.17 6.85003 17.25L5.37002 17.71C5.11002 17.79 4.84003 17.68 4.70003 17.45L3.59002 15.56C3.46002 15.34 3.51003 15.05 3.70003 14.88L4.83002 13.86C5.36002 13.38 5.66003 12.71 5.66003 12C5.66003 11.29 5.36002 10.61 4.83002 10.14L3.70003 9.11999C3.52003 8.94999 3.47002 8.66999 3.60002 8.44999L4.72003 6.54999C4.85003 6.32999 5.13003 6.21999 5.38003 6.29999L6.87003 6.75999C7.55002 6.96999 8.29003 6.88999 8.90003 6.53999C9.52003 6.18999 9.96002 5.58999 10.11 4.90999L10.44 3.43999C10.5 3.18999 10.73 2.99999 11 2.99999H13.23C13.5 2.99999 13.73 3.17999 13.79 3.43999L14.12 4.90999C14.28 5.59999 14.72 6.18999 15.33 6.53999C15.94 6.88999 16.67 6.96999 17.35 6.75999L18.84 6.29999C19.09 6.21999 19.37 6.32999 19.5 6.54999L20.61 8.43999C20.74 8.65999 20.69 8.94999 20.5 9.11999L19.37 10.14C18.84 10.62 18.54 11.29 18.54 12C18.54 12.71 18.84 13.39 19.37 13.86L20.5 14.88C20.69 15.05 20.74 15.33 20.61 15.55L19.49 17.45C19.36 17.67 19.08 17.78 18.83 17.7L17.34 17.24C16.67 17.03 15.93 17.11 15.32 17.46C14.7 17.81 14.26 18.41 14.11 19.09L13.78 20.57C13.72 20.82 13.49 21 13.23 21H10.99C10.72 21 10.49 20.82 10.43 20.56L10.1 19.09C9.94003 18.4 9.50003 17.81 8.89003 17.46ZM8.1001 12C8.1001 14.21 9.8901 16 12.1001 16C14.3101 16 16.1001 14.21 16.1001 12C16.1001 9.78999 14.3101 7.99999 12.1001 7.99999C9.8901 7.99999 8.1001 9.78999 8.1001 12ZM10.1001 12C10.1001 10.9 11.0001 9.99999 12.1001 9.99999C13.2001 9.99999 14.1001 10.9 14.1001 12C14.1001 13.1 13.2001 14 12.1001 14C11.0001 14 10.1001 13.1 10.1001 12Z" fill="black"/>
</svg>
