<svg width="24" height="24" viewBox="0 0 24 24" fill="none" xmlns="http://www.w3.org/2000/svg">
<path fill-rule="evenodd" clip-rule="evenodd" d="M9.19004 10.9982L12.75 3.76819H12.73C13.08 3.03819 13.95 2.77819 14.62 3.20819C15.66 3.87819 16.21 5.12819 16.02 6.37819L15.47 9.19819C15.45 9.32819 15.54 9.44819 15.67 9.44819H19.3C20.18 9.44819 20.86 10.2482 20.76 11.1582L20.17 19.0982C20.05 20.1782 19.17 20.9982 18.13 20.9982H9.57004C9.28004 20.9982 9.04004 20.7482 9.04004 20.4282V11.6582C9.04004 11.4282 9.09004 11.1982 9.19004 10.9982ZM7 11.3082H4.74V11.2982C3.78 11.2982 3 12.0782 3 13.0382V19.2482C3 20.2082 3.78 20.9882 4.74 20.9882H7C7.27 20.9882 7.5 20.7682 7.5 20.4882V11.8082C7.5 11.5382 7.28 11.3082 7 11.3082Z" fill="black"/>
</svg>
