<svg width="20" height="20" viewBox="0 0 20 20" fill="none" xmlns="http://www.w3.org/2000/svg">
<path d="M18.44 8.14999C18.02 7.66999 17.42 7.39999 16.79 7.39999H14.12L14.47 5.16999C14.71 3.64999 14.03 2.13999 12.74 1.33999C12.22 1.00999 11.58 0.919993 10.98 1.09999C10.39 1.26999 9.89999 1.68999 9.61999 2.23999L6.21999 8.73999H3.46999C2.09999 8.73999 0.98999 9.87999 0.98999 11.27V16.48C0.98999 17.88 2.09999 19.01 3.46999 19.01H15.97C17.09 19.01 18.03 18.15 18.16 17.02L18.97 9.91999C19.04 9.27999 18.85 8.63999 18.43 8.15999L18.44 8.14999ZM2.97999 16.47V11.26C2.97999 10.98 3.19999 10.75 3.47999 10.75H5.82999V16.98H3.47999C3.19999 16.98 2.97999 16.75 2.97999 16.47ZM16.2 16.78C16.19 16.9 16.09 16.98 15.98 16.98H7.80999V9.99999L11.37 3.17999C11.37 3.17999 11.37 3.16999 11.37 3.15999C11.41 3.08999 11.47 3.04999 11.51 3.03999C11.55 3.02999 11.62 3.01999 11.69 3.05999C12.29 3.43999 12.61 4.13999 12.5 4.84999L11.97 8.24999C11.92 8.53999 12.01 8.83999 12.19 9.06999C12.38 9.28999 12.65 9.41999 12.94 9.41999H16.78C16.86 9.41999 16.92 9.45999 16.95 9.49999C16.98 9.53999 17.01 9.58999 17.01 9.67999L16.2 16.78Z" fill="black"/>
</svg>
