<svg width="24" height="24" viewBox="0 0 24 24" fill="none" xmlns="http://www.w3.org/2000/svg">
<path d="M11.9999 11.7C9.3299 11.7 7.1499 9.52 7.1499 6.85C7.1499 4.18 9.3199 2 11.9999 2C14.6799 2 16.8499 4.18 16.8499 6.85C16.8499 9.52 14.6699 11.7 11.9999 11.7ZM11.9999 3.94C10.3999 3.94 9.0899 5.25 9.0899 6.85C9.0899 8.45 10.3999 9.76 11.9999 9.76C13.5999 9.76 14.9099 8.45 14.9099 6.85C14.9099 5.25 13.5999 3.94 11.9999 3.94Z" fill="black"/>
<path d="M20.03 22C19.49 22 19.06 21.57 19.06 21.03C19.06 18.18 15.98 14.87 12 14.87C8.02 14.87 4.94 18.24 4.94 21.03C4.94 21.57 4.51 22 3.97 22C3.43 22 3 21.57 3 21.03C3 17.28 6.93 12.93 12 12.93C17.07 12.93 21 17.21 21 21.03C21 21.57 20.57 22 20.03 22Z" fill="black"/>
</svg>
