<svg width="24" height="24" viewBox="0 0 24 24" fill="none" xmlns="http://www.w3.org/2000/svg">
<path d="M5 19.25H6.35C6.35 19.25 6.42 19.24 6.44 19.21L14.93 10.72C14.98 10.67 14.98 10.59 14.93 10.53L13.72 9.31999C13.67 9.26999 13.59 9.26999 13.53 9.31999L5.04 17.81C5.04 17.81 5 17.87 5 17.9V19.25ZM18.84 8.71999L15.51 5.42999C15.25 5.17999 15.25 4.76999 15.51 4.50999L16.45 3.56999C16.83 3.18999 17.3 2.98999 17.86 2.98999C18.42 2.98999 18.89 3.17999 19.27 3.56999L20.67 4.96999C21.05 5.34999 21.25 5.81999 21.27 6.35999C21.29 6.89999 21.1 7.35999 20.72 7.74999L19.75 8.71999C19.5 8.96999 19.09 8.96999 18.84 8.71999ZM17.31 11.19L7.51 20.99C7.35 21.15 7.12 21.25 6.89 21.25H3.63C3.28 21.25 3 20.97 3 20.62V17.36C3 17.13 3.09 16.91 3.26 16.74L13.06 6.93999C13.36 6.63999 13.84 6.63999 14.14 6.93999L17.31 10.11C17.61 10.41 17.61 10.89 17.31 11.19ZM14.33 9.91999L13.63 9.21999L15.03 10.62L14.33 9.91999Z" fill="black"/>
</svg>
