<svg width="12" height="12" viewBox="0 0 12 12" fill="none" xmlns="http://www.w3.org/2000/svg">
<path fill-rule="evenodd" clip-rule="evenodd" d="M1.58909 0.41107C1.26366 0.085633 0.736019 0.085633 0.410582 0.41107C0.0851447 0.736507 0.0851447 1.26414 0.410582 1.58958L4.82133 6.00033L0.410582 10.4111C0.0851447 10.7365 0.0851447 11.2641 0.410582 11.5896C0.736019 11.915 1.26366 11.915 1.58909 11.5896L5.99984 7.17884L10.4106 11.5896C10.736 11.915 11.2637 11.915 11.5891 11.5896C11.9145 11.2641 11.9145 10.7365 11.5891 10.4111L7.17835 6.00033L11.5891 1.58958C11.9145 1.26414 11.9145 0.736506 11.5891 0.41107C11.2637 0.0856332 10.736 0.0856332 10.4106 0.41107L5.99984 4.82181L1.58909 0.41107Z" fill="#B5262B"/>
</svg>
