<svg width="20" height="20" viewBox="0 0 20 20" fill="none" xmlns="http://www.w3.org/2000/svg">
<path fill-rule="evenodd" clip-rule="evenodd" d="M7.19004 9.00002L10.75 1.77002H10.73C11.08 1.04002 11.95 0.780017 12.62 1.21002C13.66 1.88002 14.21 3.13002 14.02 4.38002L13.47 7.20002C13.45 7.33002 13.54 7.45002 13.67 7.45002H17.3C18.18 7.45002 18.86 8.25002 18.76 9.16002L18.17 17.1C18.05 18.18 17.17 19 16.13 19H7.57004C7.28004 19 7.04004 18.75 7.04004 18.43V9.66002C7.04004 9.43002 7.09004 9.20002 7.19004 9.00002ZM5 9.31002H2.74V9.30002C1.78 9.30002 1 10.08 1 11.04V17.25C1 18.21 1.78 18.99 2.74 18.99H5C5.27 18.99 5.5 18.77 5.5 18.49V9.81002C5.5 9.54002 5.28 9.31002 5 9.31002Z" fill="black"/>
</svg>
