<svg width="24" height="24" viewBox="0 0 24 24" fill="none" xmlns="http://www.w3.org/2000/svg">
<path d="M20.45 10.1411C20.03 9.66114 19.43 9.39114 18.8 9.39114H16.13L16.48 7.16114C16.72 5.64114 16.04 4.13114 14.75 3.33114C14.23 3.00114 13.59 2.91114 12.99 3.09114C12.4 3.26114 11.91 3.68114 11.63 4.23114L8.23 10.7311H5.48C4.11 10.7311 3 11.8711 3 13.2611V18.4711C3 19.8711 4.11 21.0011 5.48 21.0011H17.98C19.1 21.0011 20.04 20.1411 20.17 19.0111L20.98 11.9111C21.05 11.2711 20.86 10.6311 20.44 10.1511L20.45 10.1411ZM4.99 18.4611V13.2511C4.99 12.9711 5.21 12.7411 5.49 12.7411H7.84V18.9711H5.49C5.21 18.9711 4.99 18.7411 4.99 18.4611ZM18.21 18.7711C18.2 18.8911 18.1 18.9711 17.99 18.9711H9.82V11.9911L13.38 5.17114C13.38 5.17114 13.38 5.16114 13.38 5.15114C13.42 5.08114 13.48 5.04114 13.52 5.03114C13.56 5.02114 13.63 5.01114 13.7 5.05114C14.3 5.43114 14.62 6.13114 14.51 6.84114L13.98 10.2411C13.93 10.5311 14.02 10.8311 14.2 11.0611C14.39 11.2811 14.66 11.4111 14.95 11.4111H18.79C18.87 11.4111 18.93 11.4511 18.96 11.4911C18.99 11.5311 19.02 11.5811 19.02 11.6711L18.21 18.7711Z" fill="black"/>
</svg>
