<svg width="86" height="102" viewBox="0 0 86 102" fill="none" xmlns="http://www.w3.org/2000/svg">
<path d="M1.85564 47.6891L30.3553 4.52206C31.959 2.11646 34.6653 0.646362 37.5721 0.646362H81.8751C84.6817 0.646362 86.3188 3.78702 84.7485 6.09238L54.3778 50.3954C53.4423 51.7653 53.4757 53.5695 54.4447 54.9059L84.4144 95.8011C86.0849 98.1064 84.4478 101.347 81.6078 101.347H37.405C34.5985 101.347 31.959 99.9774 30.3553 97.7055L2.0227 57.6122C-0.0487826 54.672 -0.115615 50.7295 1.85564 47.7226V47.6891Z" fill="#0FD28A"/>
<path d="M36.1341 56.4521C35.6991 56.4521 35.2642 56.273 34.9316 55.9404L27.9208 48.9297C27.2556 48.2644 27.2556 47.1642 27.9208 46.4989C28.5861 45.8337 29.6863 45.8337 30.3515 46.4989L36.1597 52.3071L41.9679 46.4989C42.6331 45.8337 43.7334 45.8337 44.3986 46.4989C45.0639 47.1642 45.0639 48.2644 44.3986 48.9297L37.3879 55.9404C37.0552 56.273 36.6203 56.4521 36.1853 56.4521H36.1341Z" fill="black"/>
<path d="M29.4335 37.0233C32.2067 37.0233 34.4452 34.7848 34.4452 32.0117C34.4452 29.2385 32.2067 27 29.4335 27C26.6604 27 24.4219 29.2385 24.4219 32.0117C24.4219 34.7848 26.6604 37.0233 29.4335 37.0233Z" fill="black"/>
<path d="M43.4001 36.9565C46.1398 36.9565 48.3784 34.7179 48.3784 31.9782C48.3784 29.2385 46.1398 27 43.4001 27C40.6604 27 38.4219 29.2385 38.4219 31.9782C38.4219 34.7179 40.6604 36.9565 43.4001 36.9565Z" fill="black"/>
</svg>
