<svg width="52" height="111" viewBox="0 0 52 111" fill="none" xmlns="http://www.w3.org/2000/svg">
<path d="M0.746212 45.4586V6.44628C0.746212 3.02476 3.53281 0.273438 6.91905 0.273438H45.5081C49.5293 0.273438 52.457 4.01241 51.5399 7.92775L42.2277 46.5521C41.7339 48.5979 39.8996 50.0089 37.8185 50.0089H5.2612C2.7568 50.0089 0.710938 47.963 0.710938 45.4586H0.746212Z" fill="#E663B3"/>
<path d="M0.894649 62.5269V86.0189C0.894649 88.5233 2.9405 90.5692 5.44491 90.5692H12.7112C13.5578 90.5692 14.1574 91.3452 13.9811 92.1565L10.877 107.148C10.4537 109.123 11.9705 110.957 13.9811 110.957H24.2103C26.3267 110.957 28.161 109.511 28.6195 107.43L38.7077 63.5145C39.3779 60.6574 37.1909 57.9766 34.2985 57.9766H5.40964C2.90523 57.9766 0.859375 60.0224 0.859375 62.5269H0.894649Z" fill="#E663B3"/>
<path d="M31.672 30.9102C32.564 30.9102 33.0097 31.9896 32.3775 32.6189L26.0033 38.9635C25.6126 39.3525 24.9807 39.3517 24.5908 38.9618L18.2462 32.6173C17.6162 31.9873 18.0624 30.9102 18.9533 30.9102H31.672Z" fill="black"/>
<path d="M20.01 26.1489C22.3381 26.1489 24.2076 24.2795 24.2076 21.9514C24.2076 19.6234 22.3381 17.7539 20.01 17.7539C17.682 17.7539 15.8125 19.6234 15.8125 21.9514C15.8125 24.2795 17.682 26.1489 20.01 26.1489Z" fill="black"/>
<path d="M30.6194 26.1487C32.9474 26.1487 34.8169 24.2792 34.8169 21.9512C34.8169 19.6232 32.9474 17.7537 30.6194 17.7537C28.2914 17.7537 26.4219 19.6232 26.4219 21.9512C26.4219 24.2792 28.2914 26.1487 30.6194 26.1487Z" fill="black"/>
</svg>
