<svg width="161" height="160" viewBox="0 0 161 160" fill="none" xmlns="http://www.w3.org/2000/svg">
<path d="M57.7462 72.4586V33.4463C57.7462 30.0248 60.5328 27.2734 63.9191 27.2734H102.508C106.529 27.2734 109.457 31.0124 108.54 34.9278L99.2277 73.5521C98.7339 75.5979 96.8996 77.0089 94.8185 77.0089H62.2612C59.7568 77.0089 57.7109 74.963 57.7109 72.4586H57.7462Z" fill="#E663B3"/>
<path d="M57.8946 89.5269V113.019C57.8946 115.523 59.9405 117.569 62.4449 117.569H69.7112C70.5578 117.569 71.1574 118.345 70.9811 119.156L67.877 134.148C67.4537 136.123 68.9705 137.957 70.9811 137.957H81.2103C83.3267 137.957 85.161 136.511 85.6195 134.43L95.7077 90.5145C96.3779 87.6574 94.1909 84.9766 91.2985 84.9766H62.4096C59.9052 84.9766 57.8594 87.0224 57.8594 89.5269H57.8946Z" fill="#E663B3"/>
<path d="M88.672 57.9102C89.564 57.9102 90.0097 58.9896 89.3775 59.6189L83.0033 65.9635C82.6126 66.3525 81.9807 66.3517 81.5908 65.9618L75.2462 59.6173C74.6162 58.9873 75.0624 57.9102 75.9533 57.9102H88.672Z" fill="black"/>
<path d="M77.01 53.1489C79.3381 53.1489 81.2076 51.2795 81.2076 48.9514C81.2076 46.6234 79.3381 44.7539 77.01 44.7539C74.682 44.7539 72.8125 46.6234 72.8125 48.9514C72.8125 51.2795 74.682 53.1489 77.01 53.1489Z" fill="black"/>
<path d="M87.6194 53.1487C89.9474 53.1487 91.8169 51.2792 91.8169 48.9512C91.8169 46.6232 89.9474 44.7537 87.6194 44.7537C85.2914 44.7537 83.4219 46.6232 83.4219 48.9512C83.4219 51.2792 85.2914 53.1487 87.6194 53.1487Z" fill="black"/>
</svg>