<svg width="66" height="98" viewBox="0 0 66 98" fill="none" xmlns="http://www.w3.org/2000/svg">
<path d="M65.854 20.9552V5.29382C65.854 2.54249 63.6318 0.320312 60.8804 0.320312H7.33545C3.52593 0.320312 0.421875 3.42434 0.421875 7.23386V90.8317C0.421875 94.6413 3.52593 97.7454 7.33545 97.7454H60.8804C63.6318 97.7454 65.854 95.5231 65.854 92.7718V77.1104C65.854 74.3591 63.6318 72.1368 60.8804 72.1368H40.4571C39.3989 72.1368 38.5524 71.2903 38.5524 70.2321V27.9746C38.5524 26.9164 39.3989 26.0698 40.4571 26.0698H60.8804C63.6318 26.0698 65.854 23.8477 65.854 21.0963V20.9552Z" fill="#0FD28A"/>
<path d="M14.2193 47.9683C16.2648 47.9683 17.923 44.8413 17.923 40.9841C17.923 37.1269 16.2648 34 14.2193 34C12.1738 34 10.5156 37.1269 10.5156 40.9841C10.5156 44.8413 12.1738 47.9683 14.2193 47.9683Z" fill="black"/>
<path d="M25.1568 47.9683C27.2023 47.9683 28.8605 44.8413 28.8605 40.9841C28.8605 37.1269 27.2023 34 25.1568 34C23.1113 34 21.4531 37.1269 21.4531 40.9841C21.4531 44.8413 23.1113 47.9683 25.1568 47.9683Z" fill="black"/>
<path d="M28.782 53.3379C28.6409 52.9852 28.2882 52.7383 27.9002 52.7383H11.8508C11.4628 52.7383 11.1101 52.9852 10.969 53.3379C10.8279 53.6907 10.8985 54.1139 11.1806 54.3961L19.1877 62.4032C19.364 62.5796 19.611 62.6854 19.8579 62.6854C20.1048 62.6854 20.3517 62.5796 20.5281 62.4032L28.5351 54.3961C28.8173 54.1139 28.8879 53.7259 28.7468 53.3379H28.782Z" fill="black"/>
</svg>
