<svg width="160" height="160" viewBox="0 0 160 160" fill="none" xmlns="http://www.w3.org/2000/svg">
<path d="M58.9666 128.467V78.3431C58.9666 76.7205 57.6615 75.4154 56.0389 75.4154H36.8855C34.4869 75.4154 32.5469 73.4754 32.5469 71.0768V41.6941C32.5469 39.2955 34.4869 37.3555 36.8855 37.3555H123.094C125.492 37.3555 127.432 39.2955 127.432 41.6941V71.0768C127.432 73.4754 125.492 75.4154 123.094 75.4154H104.61C102.988 75.4154 101.683 76.7205 101.683 78.3431V128.467C101.683 130.865 99.7426 132.805 97.344 132.805H63.3053C60.9067 132.805 58.9666 130.865 58.9666 128.467Z" fill="#7E6FF4"/>
<path d="M77.0368 81.3676C82.0456 82.6727 87.125 80.133 89.2414 75.6181C89.6999 74.6304 89.2414 73.6075 88.1832 73.3253L71.1814 68.9161C70.1232 68.6339 69.2061 69.3041 69.1355 70.3976C68.7828 75.3711 72.028 80.0625 77.0368 81.3323V81.3676Z" fill="black"/>
<path d="M73.742 63.8786C76.317 63.8786 78.3981 61.7974 78.3981 59.2225C78.3981 56.6475 76.317 54.5664 73.742 54.5664C71.1671 54.5664 69.0859 56.6475 69.0859 59.2225C69.0859 61.7974 71.1671 63.8786 73.742 63.8786Z" fill="black"/>
<path d="M88.0389 65.1442C90.6139 65.1442 92.695 63.0631 92.695 60.4881C92.695 57.9132 90.6139 55.832 88.0389 55.832C85.4639 55.832 83.3828 57.9132 83.3828 60.4881C83.3828 63.0631 85.4639 65.1442 88.0389 65.1442Z" fill="black"/>
</svg>
