<svg width="96" height="96" viewBox="0 0 96 96" fill="none" xmlns="http://www.w3.org/2000/svg">
<path d="M26.9666 91.4666V41.3431C26.9666 39.7205 25.6615 38.4154 24.0389 38.4154H4.88548C2.4869 38.4154 0.546875 36.4754 0.546875 34.0768V4.69409C0.546875 2.2955 2.4869 0.355469 4.88548 0.355469H91.0936C93.4922 0.355469 95.4322 2.2955 95.4322 4.69409V34.0768C95.4322 36.4754 93.4922 38.4154 91.0936 38.4154H72.6104C70.9878 38.4154 69.6827 39.7205 69.6827 41.3431V91.4666C69.6827 93.8652 67.7426 95.8052 65.344 95.8052H31.3053C28.9067 95.8052 26.9666 93.8652 26.9666 91.4666Z" fill="#7E6FF4"/>
<path d="M45.0368 44.3676C50.0456 45.6727 55.125 43.133 57.2414 38.6181C57.6999 37.6304 57.2414 36.6075 56.1832 36.3253L39.1814 31.9161C38.1232 31.6339 37.2061 32.3041 37.1355 33.3976C36.7828 38.3711 40.028 43.0625 45.0368 44.3323V44.3676Z" fill="black"/>
<path d="M41.742 26.8786C44.317 26.8786 46.3981 24.7974 46.3981 22.2225C46.3981 19.6475 44.317 17.5664 41.742 17.5664C39.1671 17.5664 37.0859 19.6475 37.0859 22.2225C37.0859 24.7974 39.1671 26.8786 41.742 26.8786Z" fill="black"/>
<path d="M56.0389 28.1442C58.6139 28.1442 60.695 26.0631 60.695 23.4881C60.695 20.9132 58.6139 18.832 56.0389 18.832C53.4639 18.832 51.3828 20.9132 51.3828 23.4881C51.3828 26.0631 53.4639 28.1442 56.0389 28.1442Z" fill="black"/>
</svg>
