<svg width="160" height="160" viewBox="0 0 160 160" fill="none" xmlns="http://www.w3.org/2000/svg">
<path d="M103.26 26.2344L121.179 44.1533C123.049 46.0227 123.754 48.7388 123.049 51.3137L102.449 125.882C101.32 130.009 97.5459 132.866 93.2425 132.866H59.2037C57.1578 132.866 55.1825 132.054 53.7363 130.608L35.5 112.372L103.225 26.2344H103.26Z" fill="#7E6FF4"/>
<path d="M35.0366 107.043L61.1389 29.3003C62.056 26.5843 64.6309 24.7148 67.4881 24.7148H99.1636C102.55 24.7148 104.948 27.9953 103.925 31.2051L79.6574 108.912C78.7756 111.699 76.2006 113.604 73.2729 113.604H39.7985C36.377 113.604 33.9784 110.253 35.0719 107.008L35.0366 107.043Z" fill="white"/>
<path d="M72.4042 83.9604C65.5762 83.9604 59.6121 79.0275 58.4416 72.1715C58.2744 71.1682 58.9432 70.1928 59.9744 70.0256C60.9777 69.8584 61.9532 70.5272 62.1204 71.5584C63.0401 76.9651 68.0287 80.7554 73.4912 80.1701C74.5223 80.0586 75.442 80.8111 75.5535 81.8423C75.665 82.8735 74.9125 83.7932 73.8813 83.9046C73.3797 83.9604 72.9059 83.9883 72.4042 83.9883V83.9604Z" fill="black"/>
<path d="M66.0494 64.1234C67.7637 64.1234 69.1534 61.5966 69.1534 58.4796C69.1534 55.3627 67.7637 52.8359 66.0494 52.8359C64.335 52.8359 62.9453 55.3627 62.9453 58.4796C62.9453 61.5966 64.335 64.1234 66.0494 64.1234Z" fill="black"/>
<path d="M75.8306 64.1234C77.5449 64.1234 78.9347 61.5966 78.9347 58.4796C78.9347 55.3627 77.5449 52.8359 75.8306 52.8359C74.1163 52.8359 72.7266 55.3627 72.7266 58.4796C72.7266 61.5966 74.1163 64.1234 75.8306 64.1234Z" fill="black"/>
</svg>
