<svg width="90" height="109" viewBox="0 0 90 109" fill="none" xmlns="http://www.w3.org/2000/svg">
<path d="M69.2601 2.23438L87.179 20.1533C89.0485 22.0227 89.754 24.7388 89.0485 27.3137L68.4489 101.882C67.3201 106.009 63.5459 108.866 59.2425 108.866H25.2037C23.1578 108.866 21.1825 108.054 19.7363 106.608L1.5 88.3719L69.2249 2.23438H69.2601Z" fill="#7E6FF4"/>
<path d="M1.03658 83.0429L27.1389 5.30034C28.056 2.58429 30.6309 0.714844 33.4881 0.714844H65.1636C68.5498 0.714844 70.9484 3.99525 69.9255 7.20513L45.6574 84.9124C44.7756 87.699 42.2006 89.6037 39.2729 89.6037H5.79848C2.37697 89.6037 -0.0216229 86.2528 1.07185 83.0076L1.03658 83.0429Z" fill="white"/>
<path d="M38.4042 59.9604C31.5762 59.9604 25.6121 55.0275 24.4416 48.1715C24.2744 47.1682 24.9432 46.1928 25.9744 46.0256C26.9777 45.8584 27.9532 46.5272 28.1204 47.5584C29.0401 52.9651 34.0287 56.7554 39.4912 56.1701C40.5223 56.0586 41.442 56.8111 41.5535 57.8423C41.665 58.8735 40.9125 59.7932 39.8813 59.9046C39.3797 59.9604 38.9059 59.9883 38.4042 59.9883V59.9604Z" fill="black"/>
<path d="M32.0494 40.1234C33.7637 40.1234 35.1534 37.5966 35.1534 34.4796C35.1534 31.3627 33.7637 28.8359 32.0494 28.8359C30.335 28.8359 28.9453 31.3627 28.9453 34.4796C28.9453 37.5966 30.335 40.1234 32.0494 40.1234Z" fill="black"/>
<path d="M41.8306 40.1234C43.5449 40.1234 44.9347 37.5966 44.9347 34.4796C44.9347 31.3627 43.5449 28.8359 41.8306 28.8359C40.1163 28.8359 38.7266 31.3627 38.7266 34.4796C38.7266 37.5966 40.1163 40.1234 41.8306 40.1234Z" fill="black"/>
</svg>
