<svg width="161" height="160" viewBox="0 0 161 160" fill="none" xmlns="http://www.w3.org/2000/svg">
<path d="M112.854 51.9552V36.2938C112.854 33.5425 110.632 31.3203 107.88 31.3203H54.3355C50.5259 31.3203 47.4219 34.4243 47.4219 38.2339V121.832C47.4219 125.641 50.5259 128.745 54.3355 128.745H107.88C110.632 128.745 112.854 126.523 112.854 123.772V108.11C112.854 105.359 110.632 103.137 107.88 103.137H87.4571C86.3989 103.137 85.5524 102.29 85.5524 101.232V58.9746C85.5524 57.9164 86.3989 57.0698 87.4571 57.0698H107.88C110.632 57.0698 112.854 54.8477 112.854 52.0963V51.9552Z" fill="#0FD28A"/>
<path d="M61.2193 78.9683C63.2648 78.9683 64.923 75.8413 64.923 71.9841C64.923 68.1269 63.2648 65 61.2193 65C59.1738 65 57.5156 68.1269 57.5156 71.9841C57.5156 75.8413 59.1738 78.9683 61.2193 78.9683Z" fill="black"/>
<path d="M72.1568 78.9683C74.2023 78.9683 75.8605 75.8413 75.8605 71.9841C75.8605 68.1269 74.2023 65 72.1568 65C70.1113 65 68.4531 68.1269 68.4531 71.9841C68.4531 75.8413 70.1113 78.9683 72.1568 78.9683Z" fill="black"/>
<path d="M75.782 84.3379C75.6409 83.9852 75.2882 83.7383 74.9002 83.7383H58.8508C58.4628 83.7383 58.1101 83.9852 57.969 84.3379C57.8279 84.6907 57.8985 85.1139 58.1806 85.3961L66.1877 93.4032C66.364 93.5796 66.611 93.6854 66.8579 93.6854C67.1048 93.6854 67.3517 93.5796 67.5281 93.4032L75.5351 85.3961C75.8173 85.1139 75.8879 84.7259 75.7468 84.3379H75.782Z" fill="black"/>
</svg>
