<svg width="160" height="160" viewBox="0 0 160 160" fill="none" xmlns="http://www.w3.org/2000/svg">
<path d="M114.008 36.051H53.7255C48.6814 36.051 44.378 39.7194 43.602 44.693L34.2546 104.728C33.6196 108.714 36.7237 112.312 40.7449 112.312H87.7995C89.2457 112.312 90.6214 112.982 91.5032 114.111L101.133 126.457C103.531 129.525 108.47 128.22 109.034 124.34L120.533 43.4937C121.098 39.5431 118.029 35.9805 114.008 35.9805V36.051Z" fill="#E663B3"/>
<path d="M69.8905 68.5309C72.4654 68.5309 74.5465 66.4498 74.5465 63.8748C74.5465 61.2999 72.4654 59.2188 69.8905 59.2188C67.3155 59.2188 65.2344 61.2999 65.2344 63.8748C65.2344 66.4498 67.3155 68.5309 69.8905 68.5309Z" fill="black"/>
<path d="M84.1639 69.8004C86.7389 69.8004 88.82 67.7193 88.82 65.1444C88.82 62.5694 86.7389 60.4883 84.1639 60.4883C81.5889 60.4883 79.5078 62.5694 79.5078 65.1444C79.5078 67.7193 81.5889 69.8004 84.1639 69.8004Z" fill="black"/>
<path d="M77.6222 89.2729C83.8303 88.638 88.5216 83.5939 88.8744 77.5621C88.9449 76.3981 88.0983 75.5515 86.9343 75.6574L65.6645 77.8796C64.5005 77.9854 63.8655 79.0083 64.183 80.1371C65.8056 85.9572 71.414 89.9431 77.6222 89.2729Z" fill="black"/>
</svg>
