<svg width="87" height="94" viewBox="0 0 87 94" fill="none" xmlns="http://www.w3.org/2000/svg">
<path id="Vector" d="M80.0076 1.05101H19.7255C14.6814 1.05101 10.378 4.71945 9.60199 9.69299L0.254554 69.7283C-0.380367 73.7142 2.72369 77.312 6.74485 77.312H53.7995C55.2457 77.312 56.6214 77.9822 57.5032 79.111L67.1329 91.4567C69.5314 94.5255 74.4697 93.2203 75.0341 89.3403L86.5332 8.4937C87.0976 4.54308 84.0288 0.980469 80.0076 0.980469V1.05101Z" fill="#E663B3"/>
<path id="Vector_2" d="M35.8905 33.5309C38.4654 33.5309 40.5465 31.4498 40.5465 28.8748C40.5465 26.2999 38.4654 24.2188 35.8905 24.2188C33.3155 24.2188 31.2344 26.2999 31.2344 28.8748C31.2344 31.4498 33.3155 33.5309 35.8905 33.5309Z" fill="black"/>
<path id="Vector_3" d="M50.1639 34.8004C52.7389 34.8004 54.82 32.7193 54.82 30.1444C54.82 27.5694 52.7389 25.4883 50.1639 25.4883C47.5889 25.4883 45.5078 27.5694 45.5078 30.1444C45.5078 32.7193 47.5889 34.8004 50.1639 34.8004Z" fill="black"/>
<path id="Vector_4" d="M43.6222 54.2729C49.8303 53.638 54.5216 48.5939 54.8744 42.5621C54.9449 41.3981 54.0983 40.5515 52.9343 40.6574L31.6645 42.8796C30.5005 42.9854 29.8655 44.0083 30.183 45.1371C31.8056 50.9572 37.414 54.9431 43.6222 54.2729Z" fill="black"/>
</svg>
