<svg width="107" height="89" viewBox="0 0 107 89" fill="none" xmlns="http://www.w3.org/2000/svg">
<path d="M3.32183 37.6288L26.955 3.20195C28.3306 1.22664 30.5529 0.0273438 32.9515 0.0273438H76.5141C77.8545 0.0273438 78.6305 1.50884 77.8545 2.60231L48.6834 44.9656C48.2954 45.53 48.2954 46.306 48.6834 46.8704L77.6428 86.1649C78.4541 87.2584 77.6428 88.7751 76.3024 88.7751H32.7045C30.3765 88.7751 28.1896 87.6817 26.8139 85.8122L3.46292 54.0309C-0.0996863 49.1984 -0.205505 42.6023 3.21601 37.664L3.32183 37.6288Z" fill="#7E6FF4"/>
<path d="M73.261 87.038L47.2645 54.3396C43.6667 49.8246 43.5256 43.5107 46.8765 38.8193L73.2963 2.09975C75.201 -0.545749 79.1164 -0.439925 80.9153 2.24085L104.09 37.232C106.947 41.5354 106.947 47.1438 104.09 51.4472L80.7037 86.7206C78.9753 89.3308 75.1658 89.5072 73.2257 87.038H73.261Z" fill="white"/>
<path d="M70.9082 40.254C73.1657 40.254 75.0352 38.4197 75.0352 36.127C75.0352 33.8342 73.201 32 70.9082 32C68.6155 32 66.7812 33.8342 66.7812 36.127C66.7812 38.4197 68.6155 40.254 70.9082 40.254Z" fill="black"/>
<path d="M83.5801 40.254C85.8376 40.254 87.7071 38.4198 87.7071 36.127C87.7071 33.8342 85.8729 32 83.5801 32C81.2873 32 79.4531 33.8342 79.4531 36.127C79.4531 38.4198 81.2873 40.254 83.5801 40.254Z" fill="black"/>
<path d="M77.2474 59.4521C76.8124 59.4521 76.3775 59.273 76.0448 58.9404L69.0341 51.9297C68.3688 51.2644 68.3688 50.1642 69.0341 49.4989C69.6993 48.8337 70.7996 48.8337 71.4648 49.4989L77.273 55.3071L83.0812 49.4989C83.7464 48.8337 84.8466 48.8337 85.5119 49.4989C86.1771 50.1642 86.1771 51.2644 85.5119 51.9297L78.5011 58.9404C78.1685 59.273 77.7335 59.4521 77.2986 59.4521H77.2474Z" fill="black"/>
</svg>
