<svg width="81" height="104" viewBox="0 0 81 104" fill="none" xmlns="http://www.w3.org/2000/svg">
<path d="M0.385815 96.2351L30.5446 6.39386C31.6733 3.00762 34.8479 0.714844 38.4105 0.714844H74.7774C78.6927 0.714844 81.4793 4.52433 80.3153 8.22803L52.2729 97.9988C51.1795 101.456 47.9696 103.819 44.3364 103.819H5.88848C1.93786 103.819 -0.884027 99.9388 0.385815 96.1646V96.2351Z" fill="#E663B3"/>
<path d="M42.9882 63.9604C36.1602 63.9604 30.1961 59.0275 29.0256 52.1715C28.8584 51.1682 29.5272 50.1928 30.5584 50.0256C31.5617 49.8584 32.5371 50.5272 32.7044 51.5584C33.6241 56.9651 38.6127 60.7554 44.0751 60.1701C45.1063 60.0586 46.026 60.8111 46.1375 61.8423C46.249 62.8735 45.4965 63.7932 44.4653 63.9046C43.9637 63.9604 43.4899 63.9883 42.9882 63.9883V63.9604Z" fill="black"/>
<path d="M36.5526 45.762C38.8124 45.762 40.6444 43.8985 40.6444 41.5998C40.6444 39.301 38.8124 37.4375 36.5526 37.4375C34.2928 37.4375 32.4609 39.301 32.4609 41.5998C32.4609 43.8985 34.2928 45.762 36.5526 45.762Z" fill="black"/>
<path d="M49.5136 45.762C51.7734 45.762 53.6053 43.8985 53.6053 41.5998C53.6053 39.301 51.7734 37.4375 49.5136 37.4375C47.2538 37.4375 45.4219 39.301 45.4219 41.5998C45.4219 43.8985 47.2538 45.762 49.5136 45.762Z" fill="black"/>
</svg>
